Radio-Canada-Condensed-Italic.ufo
<glyph name="exclam" format="2">
	<advance width="275"/>
	<unicode hex="0021"/>
	<outline>
		<contour>
			<point x="29" y="36" type="curve" smooth="yes"/>
			<point x="29" y="10"/>
			<point x="47" y="-10"/>
			<point x="77" y="-10" type="curve" smooth="yes"/>
			<point x="112" y="-10"/>
			<point x="146" y="17"/>
			<point x="146" y="60" type="curve" smooth="yes"/>
			<point x="146" y="87"/>
			<point x="129" y="107"/>
			<point x="98" y="107" type="curve" smooth="yes"/>
			<point x="63" y="107"/>
			<point x="29" y="78"/>
		</contour>
		<contour>
			<point x="90" y="204" type="line"/>
			<point x="153" y="204" type="line"/>
			<point x="235" y="514" type="line"/>
			<point x="273" y="690" type="line"/>
			<point x="176" y="690" type="line"/>
			<point x="140" y="514" type="line"/>
		</contour>
	</outline>
</glyph>
<glyph name="quotedbl" format="2">
  <advance width="353"/>
  <unicode hex="0022"/>
  <outline>
    <contour>
      <point x="106" y="462" type="line"/>
      <point x="165" y="462" type="line"/>
      <point x="243" y="720" type="line"/>
      <point x="147" y="720" type="line"/>
    </contour>
    <contour>
      <point x="255" y="462" type="line"/>
      <point x="315" y="462" type="line"/>
      <point x="392" y="720" type="line"/>
      <point x="296" y="720" type="line"/>
    </contour>
  </outline>
</glyph>
<glyph name="percent" format="2">
	<advance width="786"/>
	<unicode hex="0025"/>
	<outline>
		<contour>
			<point x="112" y="488" type="curve"/>
			<point x="112" y="410"/>
			<point x="155" y="360"/>
			<point x="221" y="360" type="curve"/>
			<point x="324" y="360"/>
			<point x="391" y="460"/>
			<point x="391" y="573" type="curve"/>
			<point x="391" y="650"/>
			<point x="349" y="700"/>
			<point x="282" y="700" type="curve"/>
			<point x="184" y="700"/>
			<point x="112" y="602"/>
		</contour>
		<contour>
			<point x="180" y="491" type="curve"/>
			<point x="180" y="569"/>
			<point x="220" y="634"/>
			<point x="272" y="634" type="curve"/>
			<point x="307" y="634"/>
			<point x="325" y="607"/>
			<point x="325" y="569" type="curve"/>
			<point x="325" y="490"/>
			<point x="285" y="425"/>
			<point x="233" y="425" type="curve"/>
			<point x="199" y="425"/>
			<point x="180" y="453"/>
		</contour>
		<contour>
			<point x="105" y="0" type="line"/>
			<point x="191" y="0" type="line"/>
			<point x="705" y="690" type="line"/>
			<point x="618" y="690" type="line"/>
		</contour>
		<contour>
			<point x="422" y="118" type="curve"/>
			<point x="422" y="40"/>
			<point x="465" y="-10"/>
			<point x="531" y="-10" type="curve"/>
			<point x="634" y="-10"/>
			<point x="701" y="90"/>
			<point x="701" y="203" type="curve"/>
			<point x="701" y="280"/>
			<point x="659" y="330"/>
			<point x="592" y="330" type="curve"/>
			<point x="494" y="330"/>
			<point x="422" y="232"/>
		</contour>
		<contour>
			<point x="490" y="121" type="curve"/>
			<point x="490" y="199"/>
			<point x="530" y="264"/>
			<point x="582" y="264" type="curve"/>
			<point x="617" y="264"/>
			<point x="635" y="237"/>
			<point x="635" y="199" type="curve"/>
			<point x="635" y="120"/>
			<point x="595" y="55"/>
			<point x="543" y="55" type="curve"/>
			<point x="509" y="55"/>
			<point x="490" y="83"/>
		</contour>
	</outline>
</glyph>
<glyph name="ampersand" format="2">
	<advance width="545"/>
	<unicode hex="0026"/>
	<outline>
		<contour>
			<point x="16" y="141" type="curve" smooth="yes"/>
			<point x="16" y="60"/>
			<point x="71" y="-10"/>
			<point x="170" y="-10" type="curve" smooth="yes"/>
			<point x="339" y="-10"/>
			<point x="452" y="179"/>
			<point x="511" y="297" type="curve"/>
			<point x="441" y="326" type="line"/>
			<point x="395" y="216"/>
			<point x="290" y="67"/>
			<point x="191" y="67" type="curve" smooth="yes"/>
			<point x="138" y="67"/>
			<point x="104" y="100"/>
			<point x="104" y="156" type="curve" smooth="yes"/>
			<point x="104" y="215"/>
			<point x="146" y="254"/>
			<point x="209" y="295" type="curve" smooth="yes"/>
			<point x="327" y="371" type="line" smooth="yes"/>
			<point x="410" y="426"/>
			<point x="468" y="485"/>
			<point x="468" y="565" type="curve" smooth="yes"/>
			<point x="468" y="639"/>
			<point x="421" y="700"/>
			<point x="330" y="700" type="curve" smooth="yes"/>
			<point x="217" y="700"/>
			<point x="158" y="616"/>
			<point x="158" y="519" type="curve" smooth="yes"/>
			<point x="158" y="456"/>
			<point x="183" y="400"/>
			<point x="208" y="354" type="curve"/>
			<point x="387" y="0" type="line"/>
			<point x="481" y="0" type="line"/>
			<point x="278" y="396" type="line" smooth="yes"/>
			<point x="255" y="441"/>
			<point x="243" y="479"/>
			<point x="243" y="521" type="curve" smooth="yes"/>
			<point x="243" y="589"/>
			<point x="283" y="624"/>
			<point x="325" y="624" type="curve" smooth="yes"/>
			<point x="367" y="624"/>
			<point x="384" y="593"/>
			<point x="384" y="561" type="curve" smooth="yes"/>
			<point x="384" y="509"/>
			<point x="347" y="469"/>
			<point x="298" y="436" type="curve" smooth="yes"/>
			<point x="178" y="360" type="line" smooth="yes"/>
			<point x="78" y="297"/>
			<point x="16" y="237"/>
		</contour>
	</outline>
</glyph>
<glyph name="quotesingle" format="2">
	<advance width="204"/>
	<unicode hex="0027"/>
	<outline>
		<contour>
			<point x="105" y="462" type="line"/>
			<point x="165" y="462" type="line"/>
			<point x="243" y="720" type="line"/>
			<point x="147" y="720" type="line"/>
		</contour>
	</outline>
</glyph>
<glyph name="parenleft" format="2">
	<advance width="260"/>
	<unicode hex="0028"/>
	<outline>
		<contour>
			<point x="52" y="141" type="curve" smooth="yes"/>
			<point x="52" y="-29"/>
			<point x="98" y="-152"/>
			<point x="132" y="-233" type="curve"/>
			<point x="187" y="-207" type="line"/>
			<point x="159" y="-120"/>
			<point x="133" y="-22"/>
			<point x="133" y="129" type="curve" smooth="yes"/>
			<point x="133" y="343"/>
			<point x="239" y="572"/>
			<point x="388" y="726" type="curve"/>
			<point x="346" y="767" type="line"/>
			<point x="182" y="612"/>
			<point x="52" y="397"/>
		</contour>
	</outline>
</glyph>
<glyph name="parenright" format="2">
	<advance width="259"/>
	<unicode hex="0029"/>
	<outline>
		<contour>
			<point x="-135" y="-192" type="curve"/>
			<point x="-93" y="-233" type="line"/>
			<point x="71" y="-78"/>
			<point x="201" y="137"/>
			<point x="201" y="393" type="curve" smooth="yes"/>
			<point x="201" y="563"/>
			<point x="155" y="686"/>
			<point x="121" y="767" type="curve"/>
			<point x="66" y="741" type="line"/>
			<point x="94" y="654"/>
			<point x="120" y="556"/>
			<point x="120" y="405" type="curve" smooth="yes"/>
			<point x="120" y="191"/>
			<point x="14" y="-38"/>
		</contour>
	</outline>
</glyph>
<glyph name="asterisk" format="2">
  <advance width="478"/>
  <unicode hex="002A"/>
  <outline>
    <contour>
      <point x="88" y="524" type="line"/>
      <point x="227" y="480" type="line"/>
      <point x="89" y="327" type="line"/>
      <point x="150" y="271" type="line"/>
      <point x="270" y="438" type="line"/>
      <point x="324" y="269" type="line"/>
      <point x="403" y="316" type="line"/>
      <point x="325" y="473" type="line"/>
      <point x="491" y="519" type="line"/>
      <point x="473" y="605" type="line"/>
      <point x="321" y="533" type="line"/>
      <point x="372" y="720" type="line"/>
      <point x="282" y="720" type="line"/>
      <point x="260" y="536" type="line"/>
      <point x="122" y="609" type="line"/>
    </contour>
  </outline>
</glyph>
<glyph name="plus" format="2">
	<advance width="500"/>
	<unicode hex="002B"/>
	<outline>
		<contour>
			<point x="49.5" y="251" type="line"/>
			<point x="436.5" y="251" type="line"/>
			<point x="453.5" y="329" type="line"/>
			<point x="66.5" y="329" type="line"/>
		</contour>
		<contour>
			<point x="162.5" y="66" type="line"/>
			<point x="244.5" y="66" type="line"/>
			<point x="339.5" y="515" type="line"/>
			<point x="257.5" y="515" type="line"/>
		</contour>
	</outline>
</glyph>
<glyph name="comma" format="2">
  <advance width="195"/>
  <unicode hex="002C"/>
  <outline>
    <contour>
      <point x="-50" y="-151" type="line"/>
      <point x="4" y="-151" type="line"/>
      <point x="73" y="-27" type="line" smooth="yes"/>
      <point x="91" y="4"/>
      <point x="106" y="30"/>
      <point x="106" y="57" type="curve" smooth="yes"/>
      <point x="106" y="88"/>
      <point x="89" y="107"/>
      <point x="58" y="107" type="curve" smooth="yes"/>
      <point x="22" y="107"/>
      <point x="-10" y="77"/>
      <point x="-11" y="39" type="curve" smooth="yes"/>
      <point x="-12" y="17"/>
      <point x="-2" y="1"/>
      <point x="16" y="-6" type="curve"/>
    </contour>
  </outline>
</glyph>
<glyph name="hyphen" format="2">
	<advance width="318"/>
	<unicode hex="002D"/>
	<outline>
		<contour>
			<point x="41" y="240" type="line"/>
			<point x="259" y="240" type="line"/>
			<point x="274" y="311" type="line"/>
			<point x="56" y="311" type="line"/>
		</contour>
	</outline>
</glyph>
<glyph name="period" format="2">
	<advance width="195"/>
	<unicode hex="002E"/>
	<outline>
		<contour>
			<point x="-11" y="36" type="curve" smooth="yes"/>
			<point x="-11" y="10"/>
			<point x="7" y="-10"/>
			<point x="37" y="-10" type="curve" smooth="yes"/>
			<point x="72" y="-10"/>
			<point x="106" y="17"/>
			<point x="106" y="60" type="curve" smooth="yes"/>
			<point x="106" y="87"/>
			<point x="89" y="107"/>
			<point x="58" y="107" type="curve" smooth="yes"/>
			<point x="23" y="107"/>
			<point x="-11" y="78"/>
		</contour>
	</outline>
</glyph>
<glyph name="slash" format="2">
	<advance width="295"/>
	<unicode hex="002F"/>
	<outline>
		<contour>
			<point x="-67" y="-30" type="line"/>
			<point x="21" y="-30" type="line"/>
			<point x="389" y="720" type="line"/>
			<point x="302" y="720" type="line"/>
		</contour>
	</outline>
</glyph>
<glyph name="zero" format="2">
  <advance width="500"/>
  <unicode hex="0030"/>
  <outline>
    <contour>
      <point x="44" y="200" type="curve" smooth="yes"/>
      <point x="44" y="68"/>
      <point x="98" y="-10"/>
      <point x="193" y="-10" type="curve" smooth="yes"/>
      <point x="377" y="-10"/>
      <point x="484" y="274"/>
      <point x="484" y="495" type="curve" smooth="yes"/>
      <point x="484" y="607"/>
      <point x="440" y="700"/>
      <point x="335" y="700" type="curve" smooth="yes"/>
      <point x="146" y="700"/>
      <point x="44" y="418"/>
    </contour>
    <contour>
      <point x="132" y="207" type="curve" smooth="yes"/>
      <point x="132" y="392"/>
      <point x="220" y="615"/>
      <point x="322" y="615" type="curve" smooth="yes"/>
      <point x="377" y="615"/>
      <point x="396" y="564"/>
      <point x="396" y="481" type="curve" smooth="yes"/>
      <point x="396" y="297"/>
      <point x="307" y="75"/>
      <point x="208" y="75" type="curve" smooth="yes"/>
      <point x="153" y="75"/>
      <point x="132" y="132"/>
    </contour>
  </outline>
</glyph>
<glyph name="three" format="2">
  <advance width="500"/>
  <unicode hex="0033"/>
  <outline>
    <contour>
      <point x="4" y="74" type="line"/>
      <point x="31" y="46"/>
      <point x="95" y="-10"/>
      <point x="188" y="-10" type="curve" smooth="yes"/>
      <point x="329" y="-10"/>
      <point x="430" y="108"/>
      <point x="430" y="235" type="curve" smooth="yes"/>
      <point x="430" y="345"/>
      <point x="360" y="403"/>
      <point x="264" y="403" type="curve" smooth="yes"/>
      <point x="222" y="403" type="line"/>
      <point x="174" y="386" type="line"/>
      <point x="162" y="331" type="line"/>
      <point x="225" y="331" type="line" smooth="yes"/>
      <point x="297" y="331"/>
      <point x="340" y="292"/>
      <point x="340" y="229" type="curve" smooth="yes"/>
      <point x="340" y="142"/>
      <point x="281" y="72"/>
      <point x="194" y="72" type="curve" smooth="yes"/>
      <point x="129" y="72"/>
      <point x="81" y="117"/>
      <point x="60" y="143" type="curve"/>
    </contour>
    <contour>
      <point x="129" y="607" type="line"/>
      <point x="440" y="607" type="line"/>
      <point x="483" y="627" type="line"/>
      <point x="497" y="690" type="line"/>
      <point x="147" y="690" type="line"/>
    </contour>
    <contour>
      <point x="174" y="386" type="line"/>
      <point x="272" y="386" type="line"/>
      <point x="483" y="627" type="line"/>
      <point x="440" y="690" type="line"/>
    </contour>
  </outline>
</glyph>
<glyph name="four" format="2">
	<advance width="500"/>
	<unicode hex="0034"/>
	<outline>
		<contour>
			<point x="9" y="138" type="line"/>
			<point x="421" y="138" type="line"/>
			<point x="439" y="220" type="line"/>
			<point x="67" y="220" type="line"/>
			<point x="24" y="205" type="line"/>
		</contour>
		<contour>
			<point x="24" y="205" type="line"/>
			<point x="66" y="138" type="line"/>
			<point x="437" y="690" type="line"/>
			<point x="356" y="690" type="line"/>
		</contour>
		<contour>
			<point x="246" y="0" type="line"/>
			<point x="328" y="0" type="line"/>
			<point x="475" y="690" type="line"/>
			<point x="393" y="690" type="line"/>
		</contour>
	</outline>
</glyph>
<glyph name="five" format="1">
  <advance width="500"/>
  <unicode hex="0035"/>
  <outline>
    <contour>
      <point x="12" y="79" type="line"/>
      <point x="50" y="29"/>
      <point x="113" y="-10"/>
      <point x="195" y="-10" type="curve" smooth="yes"/>
      <point x="317" y="-10"/>
      <point x="434" y="93"/>
      <point x="434" y="246" type="curve" smooth="yes"/>
      <point x="434" y="354"/>
      <point x="371" y="425"/>
      <point x="280" y="425" type="curve" smooth="yes"/>
      <point x="224" y="425"/>
      <point x="178" y="407"/>
      <point x="145" y="381" type="curve"/>
      <point x="126" y="304" type="line"/>
      <point x="165" y="334"/>
      <point x="206" y="349"/>
      <point x="246" y="349" type="curve" smooth="yes"/>
      <point x="311" y="349"/>
      <point x="344" y="303"/>
      <point x="344" y="236" type="curve" smooth="yes"/>
      <point x="344" y="136"/>
      <point x="276" y="71"/>
      <point x="193" y="71" type="curve"/>
      <point x="141" y="71"/>
      <point x="101" y="98"/>
      <point x="68" y="142" type="curve"/>
    </contour>
    <contour>
      <point x="92" y="333" type="line"/>
      <point x="126" y="304" type="line"/>
      <point x="178" y="343" type="line"/>
      <point x="272" y="690" type="line"/>
      <point x="189" y="690" type="line"/>
    </contour>
    <contour>
      <point x="192" y="690" type="line"/>
      <point x="210" y="607" type="line"/>
      <point x="477" y="607" type="line"/>
      <point x="495" y="690" type="line"/>
    </contour>
  </outline>
</glyph>
<glyph name="six" format="2">
	<advance width="500"/>
	<unicode hex="0036"/>
	<outline>
		<contour>
			<point x="49" y="234" type="curve" smooth="yes"/>
			<point x="49" y="76"/>
			<point x="121" y="-10"/>
			<point x="227" y="-10" type="curve"/>
			<point x="349" y="-10"/>
			<point x="446" y="109"/>
			<point x="446" y="255" type="curve"/>
			<point x="446" y="366"/>
			<point x="381" y="443"/>
			<point x="288" y="443" type="curve"/>
			<point x="236" y="443"/>
			<point x="186" y="411"/>
			<point x="146" y="367" type="curve"/>
			<point x="132" y="282" type="line"/>
			<point x="175" y="334"/>
			<point x="223" y="362"/>
			<point x="274" y="362" type="curve"/>
			<point x="321" y="362"/>
			<point x="359" y="320"/>
			<point x="359" y="248" type="curve"/>
			<point x="359" y="136"/>
			<point x="295" y="72"/>
			<point x="238" y="72" type="curve"/>
			<point x="174" y="72"/>
			<point x="135" y="130"/>
			<point x="135" y="240" type="curve"/>
			<point x="135" y="471"/>
			<point x="270" y="620"/>
			<point x="369" y="620" type="curve"/>
			<point x="399" y="620"/>
			<point x="429" y="611"/>
			<point x="457" y="590" type="curve"/>
			<point x="502" y="661" type="line"/>
			<point x="463" y="688"/>
			<point x="425" y="700"/>
			<point x="372" y="700" type="curve"/>
			<point x="216" y="700"/>
			<point x="49" y="501"/>
		</contour>
	</outline>
</glyph>
<glyph name="seven" format="2">
	<advance width="500"/>
	<unicode hex="0037"/>
	<outline>
		<contour>
			<point x="69" y="0" type="line"/>
			<point x="173" y="0" type="line"/>
			<point x="496" y="628" type="line"/>
			<point x="439" y="690" type="line"/>
		</contour>
		<contour>
			<point x="121" y="602" type="line"/>
			<point x="450" y="602" type="line"/>
			<point x="496" y="628" type="line"/>
			<point x="510" y="690" type="line"/>
			<point x="140" y="690" type="line"/>
		</contour>
	</outline>
</glyph>
<glyph name="eight" format="2">
	<advance width="500"/>
	<unicode hex="0038"/>
	<outline>
		<contour>
			<point x="24" y="157" type="curve"/>
			<point x="24" y="59"/>
			<point x="103" y="-10"/>
			<point x="202" y="-10" type="curve" smooth="yes"/>
			<point x="339" y="-10"/>
			<point x="431" y="94"/>
			<point x="431" y="198" type="curve" smooth="yes"/>
			<point x="431" y="280"/>
			<point x="393" y="329"/>
			<point x="287" y="389" type="curve" smooth="yes"/>
			<point x="221" y="427"/>
			<point x="204" y="466"/>
			<point x="204" y="514" type="curve" smooth="yes"/>
			<point x="204" y="564"/>
			<point x="244" y="622"/>
			<point x="313" y="622" type="curve" smooth="yes"/>
			<point x="367" y="622"/>
			<point x="392" y="581"/>
			<point x="392" y="535" type="curve" smooth="yes"/>
			<point x="392" y="481"/>
			<point x="344" y="417"/>
			<point x="262" y="392" type="curve"/>
			<point x="316" y="356" type="line"/>
			<point x="389" y="385"/>
			<point x="479" y="461"/>
			<point x="479" y="554" type="curve"/>
			<point x="479" y="635"/>
			<point x="426" y="700"/>
			<point x="324" y="700" type="curve" smooth="yes"/>
			<point x="198" y="700"/>
			<point x="110" y="606"/>
			<point x="110" y="512" type="curve" smooth="yes"/>
			<point x="110" y="427"/>
			<point x="157" y="373"/>
			<point x="245" y="321" type="curve" smooth="yes"/>
			<point x="320" y="277"/>
			<point x="339" y="238"/>
			<point x="339" y="187" type="curve" smooth="yes"/>
			<point x="339" y="128"/>
			<point x="290" y="66"/>
			<point x="213" y="66" type="curve" smooth="yes"/>
			<point x="149" y="66"/>
			<point x="111" y="114"/>
			<point x="111" y="170" type="curve"/>
			<point x="111" y="242"/>
			<point x="171" y="308"/>
			<point x="251" y="329" type="curve"/>
			<point x="198" y="368" type="line"/>
			<point x="96" y="335"/>
			<point x="24" y="250"/>
		</contour>
	</outline>
</glyph>
<glyph name="nine" format="2">
  <advance width="500"/>
  <unicode hex="0039"/>
  <guideline x="-145" y="191" angle="78.0" identifier="eBAge5yq1V"/>
  <outline>
    <contour>
      <point x="25" y="29" type="line"/>
      <point x="64" y="2"/>
      <point x="102" y="-10"/>
      <point x="155" y="-10" type="curve"/>
      <point x="311" y="-10"/>
      <point x="478" y="189"/>
      <point x="478" y="456" type="curve" smooth="yes"/>
      <point x="478" y="614"/>
      <point x="406" y="700"/>
      <point x="300" y="700" type="curve"/>
      <point x="178" y="700"/>
      <point x="81" y="581"/>
      <point x="81" y="435" type="curve"/>
      <point x="81" y="324"/>
      <point x="146" y="247"/>
      <point x="239" y="247" type="curve"/>
      <point x="291" y="247"/>
      <point x="341" y="279"/>
      <point x="381" y="323" type="curve"/>
      <point x="395" y="408" type="line"/>
      <point x="352" y="356"/>
      <point x="304" y="328"/>
      <point x="253" y="328" type="curve"/>
      <point x="206" y="328"/>
      <point x="168" y="370"/>
      <point x="168" y="442" type="curve"/>
      <point x="168" y="554"/>
      <point x="232" y="618"/>
      <point x="289" y="618" type="curve"/>
      <point x="353" y="618"/>
      <point x="392" y="560"/>
      <point x="392" y="450" type="curve"/>
      <point x="392" y="219"/>
      <point x="257" y="70"/>
      <point x="158" y="70" type="curve"/>
      <point x="128" y="70"/>
      <point x="98" y="79"/>
      <point x="70" y="100" type="curve"/>
    </contour>
  </outline>
</glyph>
<glyph name="semicolon" format="1">
  <advance width="195"/>
  <unicode hex="003B"/>
  <outline>
    <contour>
      <point x="-50" y="-151" type="line"/>
      <point x="4" y="-151" type="line"/>
      <point x="73" y="-27" type="line" smooth="yes"/>
      <point x="91" y="4"/>
      <point x="106" y="30"/>
      <point x="106" y="57" type="curve" smooth="yes"/>
      <point x="106" y="88"/>
      <point x="89" y="107"/>
      <point x="58" y="107" type="curve" smooth="yes"/>
      <point x="22" y="107"/>
      <point x="-10" y="77"/>
      <point x="-11" y="39" type="curve" smooth="yes"/>
      <point x="-12" y="17"/>
      <point x="-2" y="1"/>
      <point x="16" y="-6" type="curve"/>
    </contour>
    <contour>
      <point x="78" y="453" type="curve" smooth="yes"/>
      <point x="78" y="427"/>
      <point x="96" y="407"/>
      <point x="126" y="407" type="curve" smooth="yes"/>
      <point x="161" y="407"/>
      <point x="195" y="434"/>
      <point x="195" y="477" type="curve" smooth="yes"/>
      <point x="195" y="504"/>
      <point x="178" y="524"/>
      <point x="147" y="524" type="curve" smooth="yes"/>
      <point x="112" y="524"/>
      <point x="78" y="495"/>
    </contour>
  </outline>
</glyph>
<glyph name="question" format="1">
  <advance width="435.3641121762131"/>
  <unicode hex="003F"/>
  <outline>
    <contour>
      <point x="112" y="36" type="curve" smooth="yes"/>
      <point x="112" y="10"/>
      <point x="130" y="-10"/>
      <point x="160" y="-10" type="curve" smooth="yes"/>
      <point x="195" y="-10"/>
      <point x="229" y="17"/>
      <point x="229" y="60" type="curve" smooth="yes"/>
      <point x="229" y="87"/>
      <point x="212" y="107"/>
      <point x="181" y="107" type="curve" smooth="yes"/>
      <point x="146" y="107"/>
      <point x="112" y="78"/>
    </contour>
    <contour>
      <point x="83" y="596" type="curve"/>
      <point x="134" y="536" type="line"/>
      <point x="176" y="589"/>
      <point x="229" y="615"/>
      <point x="272" y="615" type="curve" smooth="yes"/>
      <point x="319" y="615"/>
      <point x="346" y="582"/>
      <point x="346" y="534" type="curve" smooth="yes"/>
      <point x="346" y="492"/>
      <point x="322" y="450"/>
      <point x="246" y="394" type="curve" smooth="yes"/>
      <point x="204" y="363"/>
      <point x="175" y="328"/>
      <point x="171" y="273" type="curve" smooth="yes"/>
      <point x="166" y="200" type="line"/>
      <point x="228" y="200" type="line"/>
      <point x="242" y="258" type="line" smooth="yes"/>
      <point x="250" y="293"/>
      <point x="267" y="317"/>
      <point x="290" y="335" type="curve" smooth="yes"/>
      <point x="382" y="407"/>
      <point x="438" y="462"/>
      <point x="438" y="550" type="curve" smooth="yes"/>
      <point x="438" y="632"/>
      <point x="384" y="700"/>
      <point x="287" y="700" type="curve" smooth="yes"/>
      <point x="213" y="700"/>
      <point x="134" y="657"/>
    </contour>
  </outline>
</glyph>
<glyph name="at" format="1">
  <advance width="838.1685420261846"/>
  <unicode hex="0040"/>
  <outline>
    <contour>
      <point x="39" y="139" type="curve"/>
      <point x="39" y="-60"/>
      <point x="151" y="-193"/>
      <point x="343" y="-193" type="curve"/>
      <point x="420" y="-193"/>
      <point x="500" y="-170"/>
      <point x="546" y="-146" type="curve"/>
      <point x="527" y="-77" type="line"/>
      <point x="478" y="-103"/>
      <point x="419" y="-125"/>
      <point x="348" y="-125" type="curve" smooth="yes"/>
      <point x="196" y="-125"/>
      <point x="116" y="-10"/>
      <point x="116" y="139" type="curve" smooth="yes"/>
      <point x="116" y="414"/>
      <point x="292" y="630"/>
      <point x="491" y="630" type="curve" smooth="yes"/>
      <point x="638" y="630"/>
      <point x="720" y="543"/>
      <point x="720" y="363" type="curve" smooth="yes"/>
      <point x="720" y="218"/>
      <point x="654" y="60"/>
      <point x="589" y="60" type="curve" smooth="yes"/>
      <point x="559" y="60"/>
      <point x="545" y="106"/>
      <point x="558" y="167" type="curve" smooth="yes"/>
      <point x="633" y="493" type="line"/>
      <point x="554" y="493" type="line"/>
      <point x="525" y="408" type="line"/>
      <point x="488" y="234" type="line" smooth="yes"/>
      <point x="468" y="141"/>
      <point x="410" y="83"/>
      <point x="357" y="83" type="curve" smooth="yes"/>
      <point x="315" y="83"/>
      <point x="291" y="119"/>
      <point x="291" y="189" type="curve" smooth="yes"/>
      <point x="291" y="294"/>
      <point x="351" y="429"/>
      <point x="441" y="429" type="curve" smooth="yes"/>
      <point x="480" y="429"/>
      <point x="508" y="410"/>
      <point x="529" y="371" type="curve"/>
      <point x="546" y="437" type="line"/>
      <point x="520" y="476"/>
      <point x="488" y="501"/>
      <point x="440" y="501" type="curve" smooth="yes"/>
      <point x="307" y="501"/>
      <point x="205" y="341"/>
      <point x="205" y="175" type="curve" smooth="yes"/>
      <point x="205" y="79"/>
      <point x="243" y="5"/>
      <point x="329" y="5" type="curve" smooth="yes"/>
      <point x="392" y="5"/>
      <point x="453" y="55"/>
      <point x="483" y="116" type="curve"/>
      <point x="468" y="128" type="line"/>
      <point x="467" y="50"/>
      <point x="505" y="-10"/>
      <point x="573" y="-10" type="curve" smooth="yes"/>
      <point x="704" y="-10"/>
      <point x="794" y="182"/>
      <point x="794" y="367" type="curve" smooth="yes"/>
      <point x="794" y="586"/>
      <point x="683" y="700"/>
      <point x="500" y="700" type="curve" smooth="yes"/>
      <point x="244" y="700"/>
      <point x="39" y="449"/>
    </contour>
  </outline>
</glyph>
<glyph name="A" format="2">
	<advance width="507"/>
	<unicode hex="0041"/>
	<anchor x="336" y="690" name="top"/>
	<anchor x="342" y="0" name="ogonek"/>
	<anchor x="197" y="0" name="bottom"/>
	<outline>
		<contour>
			<point x="-45" y="0" type="line"/>
			<point x="48" y="0" type="line"/>
			<point x="336" y="609" type="line"/>
			<point x="351" y="690" type="line"/>
			<point x="302" y="690" type="line"/>
		</contour>
		<contour>
			<point x="112" y="183" type="line"/>
			<point x="361" y="183" type="line"/>
			<point x="380" y="261" type="line"/>
			<point x="131" y="261" type="line"/>
		</contour>
		<contour>
			<point x="308" y="609" type="line"/>
			<point x="342" y="0" type="line"/>
			<point x="432" y="0" type="line"/>
			<point x="375" y="690" type="line"/>
			<point x="329" y="690" type="line"/>
		</contour>
	</outline>
</glyph>
<glyph name="B" format="2">
	<advance width="509"/>
	<unicode hex="0042"/>
	<outline>
		<contour>
			<point x="17" y="0" type="line"/>
			<point x="106" y="0" type="line"/>
			<point x="253" y="690" type="line"/>
			<point x="164" y="690" type="line"/>
		</contour>
		<contour>
			<point x="60" y="0" type="line"/>
			<point x="202" y="0" type="line"/>
			<point x="343" y="0"/>
			<point x="446" y="95"/>
			<point x="446" y="231" type="curve"/>
			<point x="446" y="317"/>
			<point x="386" y="369"/>
			<point x="290" y="369" type="curve" smooth="yes"/>
			<point x="140" y="369" type="line"/>
			<point x="125" y="316" type="line"/>
			<point x="250" y="316" type="line" smooth="yes"/>
			<point x="323" y="316"/>
			<point x="352" y="278"/>
			<point x="352" y="223" type="curve" smooth="yes"/>
			<point x="352" y="148"/>
			<point x="309" y="78"/>
			<point x="199" y="78" type="curve" smooth="yes"/>
			<point x="79" y="78" type="line"/>
		</contour>
		<contour>
			<point x="131" y="334" type="line"/>
			<point x="263" y="334" type="line" smooth="yes"/>
			<point x="385" y="334"/>
			<point x="488" y="432"/>
			<point x="488" y="547" type="curve" smooth="yes"/>
			<point x="488" y="634"/>
			<point x="438" y="690"/>
			<point x="326" y="690" type="curve" smooth="yes"/>
			<point x="206" y="690" type="line"/>
			<point x="186" y="612" type="line"/>
			<point x="295" y="612" type="line" smooth="yes"/>
			<point x="366" y="612"/>
			<point x="395" y="586"/>
			<point x="395" y="527" type="curve" smooth="yes"/>
			<point x="395" y="462"/>
			<point x="349" y="390"/>
			<point x="257" y="390" type="curve" smooth="yes"/>
			<point x="144" y="390" type="line"/>
		</contour>
	</outline>
</glyph>
<glyph name="D" format="2">
	<advance width="560"/>
	<unicode hex="0044"/>
	<anchor x="337" y="690" name="top"/>
	<outline>
		<contour>
			<point x="17" y="0" type="line"/>
			<point x="106" y="0" type="line"/>
			<point x="253" y="690" type="line"/>
			<point x="164" y="690" type="line"/>
		</contour>
		<contour>
			<point x="60" y="0" type="line"/>
			<point x="173" y="0" type="line" smooth="yes"/>
			<point x="397" y="0"/>
			<point x="538" y="210"/>
			<point x="538" y="452" type="curve" smooth="yes"/>
			<point x="538" y="580"/>
			<point x="461" y="690"/>
			<point x="306" y="690" type="curve" smooth="yes"/>
			<point x="206" y="690" type="line"/>
			<point x="185" y="608" type="line"/>
			<point x="295" y="608" type="line" smooth="yes"/>
			<point x="389" y="608"/>
			<point x="447" y="551"/>
			<point x="447" y="435" type="curve" smooth="yes"/>
			<point x="447" y="245"/>
			<point x="341" y="82"/>
			<point x="176" y="82" type="curve" smooth="yes"/>
			<point x="80" y="82" type="line"/>
		</contour>
	</outline>
</glyph>
<glyph name="G" format="2">
	<advance width="556"/>
	<unicode hex="0047"/>
	<anchor x="374" y="690" name="top"/>
	<anchor x="246" y="0" name="bottom"/>
	<outline>
		<contour>
			<point x="49" y="236" type="curve" smooth="yes"/>
			<point x="49" y="81"/>
			<point x="121" y="-10"/>
			<point x="233" y="-10" type="curve" smooth="yes"/>
			<point x="316" y="-10"/>
			<point x="391" y="27"/>
			<point x="455" y="85" type="curve"/>
			<point x="393" y="141" type="line"/>
			<point x="349" y="99"/>
			<point x="299" y="75"/>
			<point x="251" y="75" type="curve" smooth="yes"/>
			<point x="180" y="75"/>
			<point x="144" y="135"/>
			<point x="144" y="251" type="curve" smooth="yes"/>
			<point x="144" y="437"/>
			<point x="263" y="613"/>
			<point x="375" y="613" type="curve" smooth="yes"/>
			<point x="413" y="613"/>
			<point x="440" y="591"/>
			<point x="466" y="548" type="curve"/>
			<point x="540" y="612" type="line"/>
			<point x="498" y="672"/>
			<point x="449" y="700"/>
			<point x="387" y="700" type="curve" smooth="yes"/>
			<point x="200" y="700"/>
			<point x="49" y="486"/>
		</contour>
		<contour>
			<point x="295" y="267" type="line"/>
			<point x="453" y="267" type="line"/>
			<point x="472" y="346" type="line"/>
			<point x="312" y="346" type="line"/>
		</contour>
		<contour>
			<point x="365" y="82" type="line"/>
			<point x="455" y="85" type="line"/>
			<point x="511" y="346" type="line"/>
			<point x="422" y="346" type="line"/>
		</contour>
	</outline>
</glyph>
<glyph name="H" format="2">
	<advance width="588"/>
	<unicode hex="0048"/>
	<anchor x="377" y="690" name="top"/>
	<outline>
		<contour>
			<point x="17" y="0" type="line"/>
			<point x="106" y="0" type="line"/>
			<point x="253" y="690" type="line"/>
			<point x="164" y="690" type="line"/>
		</contour>
		<contour>
			<point x="124" y="308" type="line"/>
			<point x="472" y="308" type="line"/>
			<point x="493" y="388" type="line"/>
			<point x="144" y="388" type="line"/>
		</contour>
		<contour>
			<point x="362" y="0" type="line"/>
			<point x="451" y="0" type="line"/>
			<point x="598" y="690" type="line"/>
			<point x="509" y="690" type="line"/>
		</contour>
	</outline>
</glyph>
<glyph name="I" format="2">
  <advance width="370"/>
  <unicode hex="0049"/>
  <anchor x="272" y="690" name="top"/>
  <anchor x="80" y="0" name="ogonek"/>
  <anchor x="125" y="0" name="bottom"/>
  <outline>
    <contour>
      <point x="2" y="0" type="line"/>
      <point x="248" y="0" type="line"/>
      <point x="264" y="73" type="line"/>
      <point x="18" y="73" type="line"/>
    </contour>
    <contour>
      <point x="81" y="0" type="line"/>
      <point x="170" y="0" type="line"/>
      <point x="317" y="690" type="line"/>
      <point x="228" y="690" type="line"/>
    </contour>
    <contour>
      <point x="133" y="617" type="line"/>
      <point x="379" y="617" type="line"/>
      <point x="395" y="690" type="line"/>
      <point x="149" y="690" type="line"/>
    </contour>
  </outline>
</glyph>
<glyph name="J" format="2">
	<advance width="438"/>
	<unicode hex="004A"/>
	<anchor x="349" y="690" name="top"/>
	<outline>
		<contour>
			<point x="-14" y="67" type="line"/>
			<point x="23" y="19"/>
			<point x="76" y="-10"/>
			<point x="134" y="-10" type="curve" smooth="yes"/>
			<point x="232" y="-10"/>
			<point x="319" y="50"/>
			<point x="354" y="214" type="curve" smooth="yes"/>
			<point x="456" y="690" type="line"/>
			<point x="368" y="690" type="line"/>
			<point x="278" y="269" type="line" smooth="yes"/>
			<point x="243" y="106"/>
			<point x="196" y="75"/>
			<point x="143" y="75" type="curve"/>
			<point x="101" y="75"/>
			<point x="70" y="97"/>
			<point x="43" y="132" type="curve"/>
		</contour>
		<contour>
			<point x="210" y="617" type="line"/>
			<point x="406" y="617" type="line"/>
			<point x="422" y="690" type="line"/>
			<point x="226" y="690" type="line"/>
		</contour>
	</outline>
</glyph>
<glyph name="K" format="1">
  <advance width="509.0"/>
  <unicode hex="004B"/>
  <outline>
    <contour>
      <point x="17" y="0" type="line"/>
      <point x="103" y="0" type="line"/>
      <point x="253" y="690" type="line"/>
      <point x="164" y="690" type="line"/>
    </contour>
    <contour>
      <point x="119" y="184" type="line"/>
      <point x="574" y="690" type="line"/>
      <point x="468" y="690" type="line"/>
      <point x="140" y="311" type="line"/>
    </contour>
    <contour>
      <point x="236" y="331" type="line"/>
      <point x="345" y="0" type="line"/>
      <point x="440" y="0" type="line"/>
      <point x="302" y="396" type="line"/>
    </contour>
    <contour>
      <point x="227" y="0" type="move" name="bottom"/>
    </contour>
  </outline>
</glyph>
<glyph name="L" format="2">
	<advance width="454"/>
	<unicode hex="004C"/>
	<anchor x="209" y="690" name="top"/>
	<anchor x="380" y="680" name="caron.alt"/>
	<anchor x="197" y="0" name="bottom"/>
	<outline>
		<contour>
			<point x="17" y="0" type="line"/>
			<point x="106" y="0" type="line"/>
			<point x="253" y="690" type="line"/>
			<point x="164" y="690" type="line"/>
		</contour>
		<contour>
			<point x="60" y="0" type="line"/>
			<point x="361" y="0" type="line"/>
			<point x="378" y="82" type="line"/>
			<point x="80" y="82" type="line"/>
		</contour>
	</outline>
</glyph>
<glyph name="M" format="2">
	<advance width="670"/>
	<unicode hex="004D"/>
	<outline>
		<contour>
			<point x="17" y="0" type="line"/>
			<point x="104" y="0" type="line"/>
			<point x="251" y="690" type="line"/>
			<point x="164" y="690" type="line"/>
		</contour>
		<contour>
			<point x="205" y="690" type="line"/>
			<point x="279" y="164" type="line"/>
			<point x="312" y="164" type="line"/>
			<point x="340" y="286" type="line"/>
			<point x="282" y="690" type="line"/>
		</contour>
		<contour>
			<point x="303" y="164" type="line"/>
			<point x="341" y="164" type="line"/>
			<point x="639" y="690" type="line"/>
			<point x="553" y="690" type="line"/>
			<point x="331" y="286" type="line"/>
		</contour>
		<contour>
			<point x="446" y="0" type="line"/>
			<point x="533" y="0" type="line"/>
			<point x="680" y="690" type="line"/>
			<point x="593" y="690" type="line"/>
		</contour>
	</outline>
</glyph>
<glyph name="N" format="2">
  <advance width="589"/>
  <unicode hex="004E"/>
  <anchor x="385" y="690" name="top"/>
  <anchor x="234" y="0" name="bottom"/>
  <outline>
    <contour>
      <point x="17" y="0" type="line"/>
      <point x="101" y="0" type="line"/>
      <point x="248" y="690" type="line"/>
      <point x="164" y="690" type="line"/>
    </contour>
    <contour>
      <point x="194" y="690" type="line"/>
      <point x="346" y="0" type="line"/>
      <point x="426" y="0" type="line"/>
      <point x="275" y="690" type="line"/>
    </contour>
    <contour>
      <point x="368" y="0" type="line"/>
      <point x="452" y="0" type="line"/>
      <point x="599" y="690" type="line"/>
      <point x="515" y="690" type="line"/>
    </contour>
  </outline>
</glyph>
<glyph name="O" format="2">
	<advance width="585"/>
	<unicode hex="004F"/>
	<anchor x="378" y="690" name="top"/>
	<anchor x="282" y="0" name="ogonek"/>
	<anchor x="227" y="0" name="bottom"/>
	<anchor x="459" y="690" name="horn"/>
	<outline>
		<contour>
			<point x="49" y="231" type="curve" smooth="yes"/>
			<point x="49" y="79"/>
			<point x="120" y="-10"/>
			<point x="237" y="-10" type="curve" smooth="yes"/>
			<point x="415" y="-10"/>
			<point x="563" y="204"/>
			<point x="563" y="459" type="curve" smooth="yes"/>
			<point x="563" y="611"/>
			<point x="491" y="700"/>
			<point x="376" y="700" type="curve" smooth="yes"/>
			<point x="196" y="700"/>
			<point x="49" y="485"/>
		</contour>
		<contour>
			<point x="144" y="243" type="curve" smooth="yes"/>
			<point x="144" y="443"/>
			<point x="253" y="615"/>
			<point x="365" y="615" type="curve" smooth="yes"/>
			<point x="432" y="615"/>
			<point x="469" y="555"/>
			<point x="469" y="447" type="curve" smooth="yes"/>
			<point x="469" y="243"/>
			<point x="360" y="75"/>
			<point x="247" y="75" type="curve" smooth="yes"/>
			<point x="180" y="75"/>
			<point x="144" y="135"/>
		</contour>
	</outline>
</glyph>
<glyph name="P" format="2">
  <advance width="502"/>
  <unicode hex="0050"/>
  <outline>
    <contour>
      <point x="17" y="0" type="line"/>
      <point x="106" y="0" type="line"/>
      <point x="253" y="690" type="line"/>
      <point x="164" y="690" type="line"/>
    </contour>
    <contour>
      <point x="106" y="231" type="line"/>
      <point x="219" y="231" type="line"/>
      <point x="401" y="231"/>
      <point x="506" y="361"/>
      <point x="506" y="512" type="curve"/>
      <point x="506" y="609"/>
      <point x="443" y="690"/>
      <point x="315" y="690" type="curve"/>
      <point x="206" y="690" type="line"/>
      <point x="185" y="608" type="line"/>
      <point x="290" y="608" type="line"/>
      <point x="379" y="608"/>
      <point x="412" y="571"/>
      <point x="412" y="502" type="curve"/>
      <point x="412" y="411"/>
      <point x="362" y="312"/>
      <point x="228" y="312" type="curve"/>
      <point x="127" y="312" type="line"/>
    </contour>
  </outline>
</glyph>
<glyph name="Q" format="2">
	<advance width="595"/>
	<unicode hex="0051"/>
	<outline>
		<contour>
			<point x="270" y="8" type="line"/>
			<point x="284" y="-91"/>
			<point x="345" y="-154"/>
			<point x="453" y="-157" type="curve"/>
			<point x="476" y="-66" type="line"/>
			<point x="404" y="-66"/>
			<point x="360" y="-41"/>
			<point x="346" y="34" type="curve"/>
		</contour>
		<contour>
			<point x="49" y="231" type="curve" smooth="yes"/>
			<point x="49" y="79"/>
			<point x="121" y="-10"/>
			<point x="237" y="-10" type="curve" smooth="yes"/>
			<point x="415" y="-10"/>
			<point x="563" y="204"/>
			<point x="563" y="459" type="curve" smooth="yes"/>
			<point x="563" y="611"/>
			<point x="491" y="700"/>
			<point x="376" y="700" type="curve" smooth="yes"/>
			<point x="196" y="700"/>
			<point x="49" y="485"/>
		</contour>
		<contour>
			<point x="144" y="243" type="curve"/>
			<point x="144" y="443"/>
			<point x="253" y="615"/>
			<point x="365" y="615" type="curve" smooth="yes"/>
			<point x="432" y="615"/>
			<point x="469" y="555"/>
			<point x="469" y="447" type="curve"/>
			<point x="469" y="243"/>
			<point x="360" y="75"/>
			<point x="247" y="75" type="curve" smooth="yes"/>
			<point x="180" y="75"/>
			<point x="144" y="135"/>
		</contour>
	</outline>
</glyph>
<glyph name="R" format="2">
	<advance width="519"/>
	<unicode hex="0052"/>
	<anchor x="328" y="690" name="top"/>
	<anchor x="215" y="0" name="bottom"/>
	<outline>
		<contour>
			<point x="17" y="0" type="line"/>
			<point x="106" y="0" type="line"/>
			<point x="253" y="690" type="line"/>
			<point x="164" y="690" type="line"/>
		</contour>
		<contour>
			<point x="106" y="263" type="line"/>
			<point x="219" y="263" type="line" smooth="yes"/>
			<point x="398" y="263"/>
			<point x="499" y="398"/>
			<point x="499" y="517" type="curve" smooth="yes"/>
			<point x="499" y="611"/>
			<point x="447" y="690"/>
			<point x="315" y="690" type="curve" smooth="yes"/>
			<point x="206" y="690" type="line"/>
			<point x="185" y="608" type="line"/>
			<point x="290" y="608" type="line" smooth="yes"/>
			<point x="374" y="608"/>
			<point x="405" y="573"/>
			<point x="405" y="510" type="curve" smooth="yes"/>
			<point x="405" y="428"/>
			<point x="351" y="342"/>
			<point x="228" y="342" type="curve" smooth="yes"/>
			<point x="127" y="342" type="line"/>
		</contour>
		<contour>
			<point x="246" y="290" type="line"/>
			<point x="323" y="0" type="line"/>
			<point x="419" y="0" type="line"/>
			<point x="334" y="290" type="line"/>
		</contour>
	</outline>
</glyph>
<glyph name="S" format="2">
  <advance width="499"/>
  <unicode hex="0053"/>
  <anchor x="318" y="690" name="top"/>
  <anchor x="204" y="0" name="bottom"/>
  <outline>
    <contour>
      <point x="-4" y="92" type="line"/>
      <point x="51" y="32"/>
      <point x="124" y="-10"/>
      <point x="214" y="-10" type="curve" smooth="yes"/>
      <point x="339" y="-10"/>
      <point x="432" y="81"/>
      <point x="432" y="189" type="curve" smooth="yes"/>
      <point x="432" y="264"/>
      <point x="404" y="327"/>
      <point x="288" y="400" type="curve" smooth="yes"/>
      <point x="212" y="449"/>
      <point x="198" y="482"/>
      <point x="198" y="517" type="curve" smooth="yes"/>
      <point x="198" y="571"/>
      <point x="238" y="615"/>
      <point x="303" y="615" type="curve" smooth="yes"/>
      <point x="357" y="615"/>
      <point x="405" y="587"/>
      <point x="443" y="550" type="curve"/>
      <point x="496" y="628" type="line"/>
      <point x="450" y="671"/>
      <point x="382" y="700"/>
      <point x="316" y="700" type="curve" smooth="yes"/>
      <point x="182" y="700"/>
      <point x="102" y="609"/>
      <point x="102" y="514" type="curve" smooth="yes"/>
      <point x="102" y="445"/>
      <point x="129" y="388"/>
      <point x="236" y="321" type="curve" smooth="yes"/>
      <point x="326" y="263"/>
      <point x="336" y="221"/>
      <point x="336" y="178" type="curve" smooth="yes"/>
      <point x="336" y="123"/>
      <point x="296" y="73"/>
      <point x="219" y="73" type="curve" smooth="yes"/>
      <point x="155" y="73"/>
      <point x="95" y="112"/>
      <point x="56" y="164" type="curve"/>
    </contour>
  </outline>
</glyph>
<glyph name="T" format="2">
	<advance width="462"/>
	<unicode hex="0054"/>
	<anchor x="319" y="690" name="top"/>
	<anchor x="175" y="0" name="bottom"/>
	<outline>
		<contour>
			<point x="94" y="608" type="line"/>
			<point x="507" y="608" type="line"/>
			<point x="525" y="690" type="line"/>
			<point x="112" y="690" type="line"/>
		</contour>
		<contour>
			<point x="128" y="0" type="line"/>
			<point x="217" y="0" type="line"/>
			<point x="364" y="690" type="line"/>
			<point x="275" y="690" type="line"/>
		</contour>
	</outline>
</glyph>
<glyph name="U" format="2">
	<advance width="567"/>
	<unicode hex="0055"/>
	<anchor x="370" y="690" name="top"/>
	<anchor x="277" y="0" name="ogonek"/>
	<anchor x="227" y="0" name="bottom"/>
	<outline>
		<contour>
			<point x="57" y="180" type="curve"/>
			<point x="57" y="74"/>
			<point x="110" y="-10"/>
			<point x="231" y="-10" type="curve" smooth="yes"/>
			<point x="350" y="-10"/>
			<point x="454" y="73"/>
			<point x="491" y="248" type="curve" smooth="yes"/>
			<point x="585" y="690" type="line"/>
			<point x="497" y="690" type="line"/>
			<point x="406" y="264" type="line" smooth="yes"/>
			<point x="377" y="129"/>
			<point x="321" y="75"/>
			<point x="249" y="75" type="curve" smooth="yes"/>
			<point x="174" y="75"/>
			<point x="148" y="118"/>
			<point x="148" y="196" type="curve" smooth="yes"/>
			<point x="148" y="234"/>
			<point x="164" y="307"/>
			<point x="169" y="329" type="curve" smooth="yes"/>
			<point x="246" y="690" type="line"/>
			<point x="156" y="690" type="line"/>
			<point x="79" y="331" type="line" smooth="yes"/>
			<point x="74" y="306"/>
			<point x="57" y="229"/>
		</contour>
	</outline>
</glyph>
<glyph name="V" format="2">
	<advance width="497"/>
	<unicode hex="0056"/>
	<outline>
		<contour>
			<point x="99" y="690" type="line"/>
			<point x="155" y="0" type="line"/>
			<point x="200" y="0" type="line"/>
			<point x="227" y="76" type="line"/>
			<point x="187" y="690" type="line"/>
		</contour>
		<contour>
			<point x="179" y="0" type="line"/>
			<point x="225" y="0" type="line"/>
			<point x="573" y="690" type="line"/>
			<point x="478" y="690" type="line"/>
			<point x="185" y="76" type="line"/>
		</contour>
	</outline>
</glyph>
<glyph name="X" format="2">
	<advance width="477"/>
	<unicode hex="0058"/>
	<outline>
		<contour>
			<point x="-42" y="0" type="line"/>
			<point x="59" y="0" type="line"/>
			<point x="249" y="293" type="line"/>
			<point x="288" y="332" type="line"/>
			<point x="539" y="690" type="line"/>
			<point x="439" y="690" type="line"/>
			<point x="260" y="413" type="line"/>
			<point x="221" y="374" type="line"/>
		</contour>
		<contour>
			<point x="113" y="690" type="line"/>
			<point x="221" y="316" type="line"/>
			<point x="308" y="0" type="line"/>
			<point x="400" y="0" type="line"/>
			<point x="288" y="389" type="line"/>
			<point x="205" y="690" type="line"/>
		</contour>
	</outline>
</glyph>
<glyph name="Y" format="2">
	<advance width="499"/>
	<unicode hex="0059"/>
	<anchor x="329" y="690" name="top"/>
	<anchor x="196" y="0" name="bottom"/>
	<outline>
		<contour>
			<point x="96" y="690" type="line"/>
			<point x="210" y="274" type="line"/>
			<point x="259" y="274" type="line"/>
			<point x="274" y="345" type="line"/>
			<point x="189" y="690" type="line"/>
		</contour>
		<contour>
			<point x="145" y="0" type="line"/>
			<point x="235" y="0" type="line"/>
			<point x="305" y="329" type="line"/>
			<point x="215" y="329" type="line"/>
		</contour>
		<contour>
			<point x="238" y="274" type="line"/>
			<point x="286" y="274" type="line"/>
			<point x="578" y="690" type="line"/>
			<point x="479" y="690" type="line"/>
			<point x="253" y="345" type="line"/>
		</contour>
	</outline>
</glyph>
<glyph name="Z" format="2">
	<advance width="495"/>
	<unicode hex="005A"/>
	<anchor x="324" y="690" name="top"/>
	<outline>
		<contour>
			<point x="-11" y="0" type="line"/>
			<point x="387" y="0" type="line"/>
			<point x="404" y="82" type="line"/>
			<point x="37" y="82" type="line"/>
			<point x="2" y="62" type="line"/>
		</contour>
		<contour>
			<point x="2" y="62" type="line"/>
			<point x="56" y="0" type="line"/>
			<point x="510" y="628" type="line"/>
			<point x="455" y="690" type="line"/>
		</contour>
		<contour>
			<point x="121" y="608" type="line"/>
			<point x="473" y="608" type="line"/>
			<point x="510" y="628" type="line"/>
			<point x="524" y="690" type="line"/>
			<point x="139" y="690" type="line"/>
		</contour>
	</outline>
</glyph>
<glyph name="bracketleft" format="2">
	<advance width="265"/>
	<unicode hex="005B"/>
	<outline>
		<contour>
			<point x="-31" y="-247" type="line"/>
			<point x="52" y="-247" type="line"/>
			<point x="275" y="782" type="line"/>
			<point x="192" y="782" type="line"/>
		</contour>
		<contour>
			<point x="-20" y="-247" type="line"/>
			<point x="173" y="-247" type="line"/>
			<point x="191" y="-175" type="line"/>
			<point x="-2" y="-175" type="line"/>
		</contour>
		<contour>
			<point x="185" y="710" type="line"/>
			<point x="379" y="710" type="line"/>
			<point x="396" y="782" type="line"/>
			<point x="203" y="782" type="line"/>
		</contour>
	</outline>
</glyph>
<glyph name="backslash" format="2">
	<advance width="288"/>
	<unicode hex="005C"/>
	<outline>
		<contour>
			<point x="92" y="720" type="line"/>
			<point x="143" y="-30" type="line"/>
			<point x="223" y="-30" type="line"/>
			<point x="172" y="720" type="line"/>
		</contour>
	</outline>
</glyph>
<glyph name="bracketright" format="2">
  <advance width="265"/>
  <unicode hex="005D"/>
  <outline>
    <contour>
      <point x="-138" y="-247" type="line"/>
      <point x="55" y="-247" type="line"/>
      <point x="73" y="-175" type="line"/>
      <point x="-120" y="-175" type="line"/>
    </contour>
    <contour>
      <point x="-16" y="-247" type="line"/>
      <point x="66" y="-247" type="line"/>
      <point x="289" y="782" type="line"/>
      <point x="207" y="782" type="line"/>
    </contour>
    <contour>
      <point x="67" y="710" type="line"/>
      <point x="261" y="710" type="line"/>
      <point x="278" y="782" type="line"/>
      <point x="85" y="782" type="line"/>
    </contour>
  </outline>
</glyph>
<glyph name="asciicircum" format="2">
	<advance width="500"/>
	<unicode hex="005E"/>
	<outline>
		<contour>
			<point x="48" y="277" type="line"/>
			<point x="140" y="277" type="line"/>
			<point x="340" y="629" type="line"/>
			<point x="354" y="690" type="line"/>
			<point x="293" y="690" type="line"/>
		</contour>
		<contour>
			<point x="317" y="690" type="line"/>
			<point x="308" y="632" type="line"/>
			<point x="366" y="277" type="line"/>
			<point x="450" y="277" type="line"/>
			<point x="375" y="690" type="line"/>
		</contour>
	</outline>
</glyph>
<glyph name="underscore" format="2">
	<advance width="361"/>
	<unicode hex="005F"/>
	<outline>
		<contour>
			<point x="-75" y="-72" type="line"/>
			<point x="286" y="-72" type="line"/>
			<point x="301" y="0" type="line"/>
			<point x="-60" y="0" type="line"/>
		</contour>
	</outline>
</glyph>
<glyph name="grave" format="2">
	<advance width="500"/>
	<unicode hex="0060"/>
	<anchor x="299" y="514" name="_top"/>
	<outline>
		<contour>
			<point x="226" y="739" type="line"/>
			<point x="297" y="589" type="line"/>
			<point x="369" y="589" type="line"/>
			<point x="317" y="739" type="line"/>
		</contour>
	</outline>
</glyph>
<glyph name="a" format="2">
	<advance width="501"/>
	<unicode hex="0061"/>
	<anchor x="308" y="514" name="top"/>
	<anchor x="295" y="0" name="ogonek"/>
	<anchor x="201" y="0" name="bottom"/>
	<outline>
		<contour>
			<point x="29" y="170" type="curve" smooth="yes"/>
			<point x="29" y="46"/>
			<point x="87" y="-10"/>
			<point x="155" y="-10" type="curve"/>
			<point x="214" y="-10"/>
			<point x="274" y="30"/>
			<point x="312" y="100" type="curve"/>
			<point x="301" y="113" type="line"/>
			<point x="296" y="0" type="line"/>
			<point x="380" y="0" type="line"/>
			<point x="380" y="33" type="line" smooth="yes"/>
			<point x="380" y="65"/>
			<point x="383" y="92"/>
			<point x="390" y="124" type="curve"/>
			<point x="473" y="515" type="line"/>
			<point x="394" y="515" type="line"/>
			<point x="373" y="452" type="line"/>
			<point x="331" y="252" type="line"/>
			<point x="305" y="130"/>
			<point x="242" y="67"/>
			<point x="185" y="67" type="curve" smooth="yes"/>
			<point x="141" y="67"/>
			<point x="118" y="105"/>
			<point x="117" y="178" type="curve" smooth="yes"/>
			<point x="116" y="319"/>
			<point x="196" y="450"/>
			<point x="278" y="450" type="curve" smooth="yes"/>
			<point x="310" y="450"/>
			<point x="345" y="437"/>
			<point x="374" y="397" type="curve"/>
			<point x="389" y="460" type="line"/>
			<point x="361" y="501"/>
			<point x="319" y="525"/>
			<point x="274" y="525" type="curve"/>
			<point x="150" y="525"/>
			<point x="29" y="363"/>
		</contour>
	</outline>
</glyph>
<glyph name="d" format="2">
  <advance width="499"/>
  <unicode hex="0064"/>
  <anchor x="587" y="720" name="caron.alt"/>
  <outline>
    <contour>
      <point x="28" y="170" type="curve"/>
      <point x="28" y="46"/>
      <point x="86" y="-10"/>
      <point x="154" y="-10" type="curve"/>
      <point x="213" y="-10"/>
      <point x="273" y="30"/>
      <point x="311" y="100" type="curve"/>
      <point x="300" y="113" type="line"/>
      <point x="294" y="0" type="line"/>
      <point x="378" y="0" type="line"/>
      <point x="379" y="33" type="line" smooth="yes"/>
      <point x="380" y="65"/>
      <point x="383" y="92"/>
      <point x="390" y="124" type="curve" smooth="yes"/>
      <point x="520" y="732" type="line"/>
      <point x="428" y="716" type="line"/>
      <point x="330" y="252" type="line" smooth="yes"/>
      <point x="304" y="130"/>
      <point x="241" y="67"/>
      <point x="184" y="67" type="curve"/>
      <point x="141" y="67"/>
      <point x="118" y="97"/>
      <point x="118" y="180" type="curve"/>
      <point x="118" y="326"/>
      <point x="196" y="450"/>
      <point x="277" y="450" type="curve"/>
      <point x="309" y="450"/>
      <point x="344" y="437"/>
      <point x="373" y="397" type="curve"/>
      <point x="388" y="460" type="line"/>
      <point x="360" y="501"/>
      <point x="318" y="525"/>
      <point x="273" y="525" type="curve"/>
      <point x="149" y="525"/>
      <point x="28" y="363"/>
    </contour>
  </outline>
</glyph>
<glyph name="f" format="2">
	<advance width="302"/>
	<unicode hex="0066"/>
	<outline>
		<contour>
			<point x="35" y="0" type="line"/>
			<point x="123" y="0" type="line"/>
			<point x="241" y="557" type="line" smooth="yes"/>
			<point x="255" y="622"/>
			<point x="283" y="654"/>
			<point x="321" y="654" type="curve" smooth="yes"/>
			<point x="340" y="654"/>
			<point x="361" y="650"/>
			<point x="378" y="639" type="curve"/>
			<point x="408" y="707" type="line"/>
			<point x="385" y="720"/>
			<point x="355" y="730"/>
			<point x="325" y="730" type="curve" smooth="yes"/>
			<point x="237" y="730"/>
			<point x="178" y="673"/>
			<point x="153" y="564" type="curve" smooth="yes"/>
		</contour>
		<contour>
			<point x="51" y="445" type="line"/>
			<point x="335" y="445" type="line"/>
			<point x="352" y="515" type="line"/>
			<point x="68" y="515" type="line"/>
		</contour>
	</outline>
</glyph>
<glyph name="g" format="2">
	<advance width="498"/>
	<unicode hex="0067"/>
	<anchor x="303" y="514" name="top"/>
	<outline>
		<contour>
			<point x="-25" y="-151" type="line"/>
			<point x="18" y="-178"/>
			<point x="66" y="-195"/>
			<point x="122" y="-195" type="curve" smooth="yes"/>
			<point x="241" y="-195"/>
			<point x="338" y="-127"/>
			<point x="371" y="28" type="curve" smooth="yes"/>
			<point x="474" y="515" type="line"/>
			<point x="395" y="515" type="line"/>
			<point x="373" y="452" type="line"/>
			<point x="333" y="255" type="line" smooth="yes"/>
			<point x="310" y="140"/>
			<point x="239" y="75"/>
			<point x="185" y="75" type="curve" smooth="yes"/>
			<point x="142" y="75"/>
			<point x="119" y="113"/>
			<point x="119" y="192" type="curve" smooth="yes"/>
			<point x="119" y="321"/>
			<point x="194" y="450"/>
			<point x="278" y="450" type="curve" smooth="yes"/>
			<point x="316" y="450"/>
			<point x="348" y="434"/>
			<point x="375" y="398" type="curve"/>
			<point x="390" y="459" type="line"/>
			<point x="358" y="504"/>
			<point x="316" y="525"/>
			<point x="275" y="525" type="curve" smooth="yes"/>
			<point x="149" y="525"/>
			<point x="31" y="370"/>
			<point x="31" y="180" type="curve" smooth="yes"/>
			<point x="31" y="65"/>
			<point x="80" y="-1"/>
			<point x="156" y="-1" type="curve" smooth="yes"/>
			<point x="216" y="-1"/>
			<point x="275" y="37"/>
			<point x="312" y="108" type="curve"/>
			<point x="301" y="116" type="line"/>
			<point x="284" y="30" type="line" smooth="yes"/>
			<point x="263" y="-74"/>
			<point x="202" y="-116"/>
			<point x="131" y="-116" type="curve" smooth="yes"/>
			<point x="86" y="-116"/>
			<point x="41" y="-98"/>
			<point x="10" y="-74" type="curve"/>
		</contour>
	</outline>
</glyph>
<glyph name="h" format="1">
  <advance width="512.044683073943"/>
  <unicode hex="0068"/>
  <outline>
    <contour>
      <point x="13" y="0" type="line"/>
      <point x="101" y="0" type="line"/>
      <point x="155" y="263" type="line" smooth="yes"/>
      <point x="179" y="381"/>
      <point x="242" y="448"/>
      <point x="304" y="448" type="curve"/>
      <point x="342" y="448"/>
      <point x="368" y="422"/>
      <point x="368" y="368" type="curve" smooth="yes"/>
      <point x="368" y="349"/>
      <point x="366" y="333"/>
      <point x="362" y="314" type="curve" smooth="yes"/>
      <point x="295" y="0" type="line"/>
      <point x="383" y="0" type="line"/>
      <point x="450" y="315" type="line" smooth="yes"/>
      <point x="454" y="335"/>
      <point x="457" y="357"/>
      <point x="457" y="377" type="curve"/>
      <point x="457" y="474"/>
      <point x="405" y="525"/>
      <point x="332" y="525" type="curve"/>
      <point x="274" y="525"/>
      <point x="212" y="485"/>
      <point x="175" y="415" type="curve"/>
      <point x="186" y="402" type="line"/>
      <point x="257" y="732" type="line"/>
      <point x="165" y="716" type="line"/>
    </contour>
    <contour>
      <point x="209" y="720" type="move" name="top"/>
    </contour>
  </outline>
</glyph>
<glyph name="k" format="2">
	<advance width="454"/>
	<unicode hex="006B"/>
	<anchor x="196" y="0" name="bottom"/>
	<outline>
		<contour>
			<point x="13" y="0" type="line"/>
			<point x="99" y="0" type="line"/>
			<point x="258" y="732" type="line"/>
			<point x="167" y="717" type="line"/>
		</contour>
		<contour>
			<point x="105" y="140" type="line"/>
			<point x="472" y="515" type="line"/>
			<point x="363" y="515" type="line"/>
			<point x="132" y="262" type="line"/>
		</contour>
		<contour>
			<point x="195" y="274" type="line"/>
			<point x="290" y="0" type="line"/>
			<point x="384" y="0" type="line"/>
			<point x="262" y="327" type="line"/>
		</contour>
	</outline>
</glyph>
<glyph name="l" format="2">
	<advance width="234"/>
	<unicode hex="006C"/>
	<anchor x="210" y="720" name="top"/>
	<anchor x="323" y="720" name="caron.alt"/>
	<anchor x="57" y="0" name="bottom"/>
	<outline>
		<contour>
			<point x="13" y="0" type="line"/>
			<point x="101" y="0" type="line"/>
			<point x="257" y="732" type="line"/>
			<point x="165" y="716" type="line"/>
		</contour>
	</outline>
</glyph>
<glyph name="m" format="2">
	<advance width="756"/>
	<unicode hex="006D"/>
	<outline>
		<contour>
			<point x="16" y="0" type="line"/>
			<point x="104" y="0" type="line"/>
			<point x="158" y="263" type="line" smooth="yes"/>
			<point x="181" y="378"/>
			<point x="244" y="448"/>
			<point x="296" y="448" type="curve" smooth="yes"/>
			<point x="331" y="448"/>
			<point x="350" y="422"/>
			<point x="350" y="373" type="curve" smooth="yes"/>
			<point x="350" y="354"/>
			<point x="347" y="334"/>
			<point x="343" y="314" type="curve" smooth="yes"/>
			<point x="276" y="0" type="line"/>
			<point x="364" y="0" type="line"/>
			<point x="418" y="263" type="line" smooth="yes"/>
			<point x="442" y="378"/>
			<point x="507" y="448"/>
			<point x="559" y="448" type="curve" smooth="yes"/>
			<point x="594" y="448"/>
			<point x="611" y="422"/>
			<point x="611" y="373" type="curve" smooth="yes"/>
			<point x="611" y="354"/>
			<point x="609" y="334"/>
			<point x="605" y="314" type="curve" smooth="yes"/>
			<point x="538" y="0" type="line"/>
			<point x="626" y="0" type="line"/>
			<point x="693" y="315" type="line" smooth="yes"/>
			<point x="697" y="336"/>
			<point x="702" y="360"/>
			<point x="702" y="389" type="curve" smooth="yes"/>
			<point x="702" y="473"/>
			<point x="656" y="525"/>
			<point x="586" y="525" type="curve" smooth="yes"/>
			<point x="518" y="525"/>
			<point x="468" y="484"/>
			<point x="426" y="412" type="curve"/>
			<point x="438" y="381" type="line"/>
			<point x="438" y="471"/>
			<point x="393" y="525"/>
			<point x="329" y="525" type="curve" smooth="yes"/>
			<point x="268" y="525"/>
			<point x="213" y="486"/>
			<point x="178" y="416" type="curve"/>
			<point x="189" y="402" type="line"/>
			<point x="194" y="515" type="line"/>
			<point x="110" y="515" type="line"/>
			<point x="110" y="482" type="line" smooth="yes"/>
			<point x="110" y="450"/>
			<point x="106" y="423"/>
			<point x="99" y="391" type="curve" smooth="yes"/>
		</contour>
	</outline>
</glyph>
<glyph name="n" format="2">
	<advance width="515"/>
	<unicode hex="006E"/>
	<anchor x="305" y="514" name="top"/>
	<anchor x="203" y="0" name="bottom"/>
	<outline>
		<contour>
			<point x="16" y="0" type="line"/>
			<point x="104" y="0" type="line"/>
			<point x="158" y="263" type="line" smooth="yes"/>
			<point x="182" y="381"/>
			<point x="245" y="448"/>
			<point x="309" y="448" type="curve" smooth="yes"/>
			<point x="345" y="448"/>
			<point x="371" y="422"/>
			<point x="371" y="373" type="curve"/>
			<point x="371" y="349"/>
			<point x="369" y="333"/>
			<point x="365" y="314" type="curve" smooth="yes"/>
			<point x="298" y="0" type="line"/>
			<point x="386" y="0" type="line"/>
			<point x="453" y="315" type="line" smooth="yes"/>
			<point x="457" y="332"/>
			<point x="462" y="361"/>
			<point x="462" y="388" type="curve" smooth="yes"/>
			<point x="462" y="476"/>
			<point x="413" y="525"/>
			<point x="335" y="525" type="curve" smooth="yes"/>
			<point x="277" y="525"/>
			<point x="215" y="485"/>
			<point x="178" y="415" type="curve"/>
			<point x="189" y="402" type="line"/>
			<point x="194" y="515" type="line"/>
			<point x="110" y="515" type="line"/>
			<point x="110" y="482" type="line" smooth="yes"/>
			<point x="110" y="450"/>
			<point x="106" y="423"/>
			<point x="99" y="391" type="curve" smooth="yes"/>
		</contour>
	</outline>
</glyph>
<glyph name="o" format="2">
	<advance width="471"/>
	<unicode hex="006F"/>
	<anchor x="282" y="514" name="top"/>
	<anchor x="209" y="0" name="ogonek"/>
	<anchor x="175" y="0" name="bottom"/>
	<outline>
		<contour>
			<point x="31" y="177" type="curve"/>
			<point x="31" y="61"/>
			<point x="89" y="-9"/>
			<point x="179" y="-10" type="curve" smooth="yes"/>
			<point x="319" y="-11"/>
			<point x="432" y="162"/>
			<point x="432" y="350" type="curve" smooth="yes"/>
			<point x="432" y="455"/>
			<point x="373" y="525"/>
			<point x="283" y="525" type="curve" smooth="yes"/>
			<point x="138" y="525"/>
			<point x="31" y="357"/>
		</contour>
		<contour>
			<point x="115" y="184" type="curve" smooth="yes"/>
			<point x="115" y="304"/>
			<point x="188" y="449"/>
			<point x="275" y="449" type="curve"/>
			<point x="322" y="449"/>
			<point x="346" y="408"/>
			<point x="346" y="337" type="curve" smooth="yes"/>
			<point x="346" y="204"/>
			<point x="271" y="66"/>
			<point x="185" y="66" type="curve" smooth="yes"/>
			<point x="140" y="66"/>
			<point x="115" y="106"/>
		</contour>
	</outline>
</glyph>
<glyph name="p" format="2">
	<advance width="501"/>
	<unicode hex="0070"/>
	<outline>
		<contour>
			<point x="-26" y="-197" type="line"/>
			<point x="65" y="-181" type="line"/>
			<point x="159" y="263" type="line"/>
			<point x="185" y="385"/>
			<point x="248" y="448"/>
			<point x="305" y="448" type="curve" smooth="yes"/>
			<point x="348" y="448"/>
			<point x="373" y="410"/>
			<point x="373" y="335" type="curve" smooth="yes"/>
			<point x="373" y="189"/>
			<point x="294" y="65"/>
			<point x="212" y="65" type="curve" smooth="yes"/>
			<point x="180" y="65"/>
			<point x="145" y="78"/>
			<point x="116" y="118" type="curve"/>
			<point x="101" y="55" type="line"/>
			<point x="129" y="14"/>
			<point x="171" y="-10"/>
			<point x="218" y="-10" type="curve"/>
			<point x="340" y="-10"/>
			<point x="461" y="152"/>
			<point x="461" y="345" type="curve" smooth="yes"/>
			<point x="461" y="469"/>
			<point x="401" y="525"/>
			<point x="335" y="525" type="curve"/>
			<point x="276" y="525"/>
			<point x="216" y="485"/>
			<point x="178" y="415" type="curve"/>
			<point x="189" y="402" type="line"/>
			<point x="194" y="515" type="line"/>
			<point x="110" y="515" type="line"/>
			<point x="110" y="482" type="line" smooth="yes"/>
			<point x="110" y="450"/>
			<point x="106" y="423"/>
			<point x="99" y="391" type="curve" smooth="yes"/>
		</contour>
	</outline>
</glyph>
<glyph name="q" format="2">
	<advance width="497"/>
	<unicode hex="0071"/>
	<outline>
		<contour>
			<point x="28" y="170" type="curve" smooth="yes"/>
			<point x="28" y="46"/>
			<point x="86" y="-10"/>
			<point x="154" y="-10" type="curve"/>
			<point x="213" y="-10"/>
			<point x="273" y="30"/>
			<point x="311" y="100" type="curve"/>
			<point x="300" y="113" type="line"/>
			<point x="234" y="-197" type="line"/>
			<point x="326" y="-181" type="line"/>
			<point x="473" y="515" type="line"/>
			<point x="394" y="515" type="line"/>
			<point x="373" y="452" type="line"/>
			<point x="331" y="252" type="line" smooth="yes"/>
			<point x="305" y="130"/>
			<point x="241" y="67"/>
			<point x="184" y="67" type="curve"/>
			<point x="141" y="67"/>
			<point x="118" y="97"/>
			<point x="118" y="180" type="curve" smooth="yes"/>
			<point x="118" y="326"/>
			<point x="196" y="450"/>
			<point x="277" y="450" type="curve"/>
			<point x="309" y="450"/>
			<point x="344" y="437"/>
			<point x="373" y="397" type="curve"/>
			<point x="388" y="460" type="line"/>
			<point x="360" y="501"/>
			<point x="318" y="525"/>
			<point x="273" y="525" type="curve"/>
			<point x="149" y="525"/>
			<point x="28" y="363"/>
		</contour>
	</outline>
</glyph>
<glyph name="r" format="2">
	<advance width="318"/>
	<unicode hex="0072"/>
	<anchor x="228" y="514" name="top"/>
	<anchor x="61" y="0" name="bottom"/>
	<outline>
		<contour>
			<point x="16" y="0" type="line"/>
			<point x="104" y="0" type="line"/>
			<point x="154" y="235" type="line" smooth="yes"/>
			<point x="189" y="393"/>
			<point x="252" y="432"/>
			<point x="330" y="432" type="curve"/>
			<point x="350" y="525" type="line"/>
			<point x="284" y="525"/>
			<point x="222" y="486"/>
			<point x="175" y="397" type="curve"/>
			<point x="188" y="386" type="line"/>
			<point x="194" y="515" type="line"/>
			<point x="110" y="515" type="line"/>
			<point x="110" y="482" type="line" smooth="yes"/>
			<point x="110" y="450"/>
			<point x="106" y="423"/>
			<point x="99" y="391" type="curve" smooth="yes"/>
		</contour>
	</outline>
</glyph>
<glyph name="v" format="2">
	<advance width="412"/>
	<unicode hex="0076"/>
	<outline>
		<contour>
			<point x="56" y="515" type="line"/>
			<point x="111" y="0" type="line"/>
			<point x="165" y="0" type="line"/>
			<point x="179" y="43" type="line"/>
			<point x="140" y="515" type="line"/>
		</contour>
		<contour>
			<point x="128" y="0" type="line"/>
			<point x="181" y="0" type="line"/>
			<point x="454" y="515" type="line"/>
			<point x="365" y="515" type="line"/>
			<point x="134" y="43" type="line"/>
		</contour>
	</outline>
</glyph>
<glyph name="w" format="2">
	<advance width="629"/>
	<unicode hex="0077"/>
	<anchor x="361" y="514" name="top"/>
	<outline>
		<contour>
			<point x="59" y="515" type="line"/>
			<point x="89" y="0" type="line"/>
			<point x="144" y="0" type="line"/>
			<point x="156" y="43" type="line"/>
			<point x="144" y="515" type="line"/>
		</contour>
		<contour>
			<point x="107" y="0" type="line"/>
			<point x="159" y="0" type="line"/>
			<point x="351" y="406" type="line"/>
			<point x="374" y="515" type="line"/>
			<point x="325" y="515" type="line"/>
			<point x="114" y="43" type="line"/>
		</contour>
		<contour>
			<point x="323" y="406" type="line"/>
			<point x="346" y="0" type="line"/>
			<point x="403" y="0" type="line"/>
			<point x="415" y="43" type="line"/>
			<point x="389" y="515" type="line"/>
			<point x="345" y="515" type="line"/>
		</contour>
		<contour>
			<point x="366" y="0" type="line"/>
			<point x="418" y="0" type="line"/>
			<point x="667" y="515" type="line"/>
			<point x="582" y="515" type="line"/>
			<point x="373" y="43" type="line"/>
		</contour>
	</outline>
</glyph>
<glyph name="z" format="2">
	<advance width="410"/>
	<unicode hex="007A"/>
	<anchor x="247" y="514" name="top"/>
	<outline>
		<contour>
			<point x="-21" y="0" type="line"/>
			<point x="309" y="0" type="line"/>
			<point x="326" y="70" type="line"/>
			<point x="27" y="70" type="line"/>
			<point x="-8" y="54" type="line"/>
		</contour>
		<contour>
			<point x="-8" y="54" type="line"/>
			<point x="44" y="0" type="line"/>
			<point x="399" y="461" type="line"/>
			<point x="345" y="515" type="line"/>
		</contour>
		<contour>
			<point x="80" y="445" type="line"/>
			<point x="363" y="445" type="line"/>
			<point x="399" y="461" type="line"/>
			<point x="410" y="515" type="line"/>
			<point x="96" y="515" type="line"/>
		</contour>
	</outline>
</glyph>
<glyph name="braceleft" format="2">
	<advance width="300"/>
	<unicode hex="007B"/>
	<outline>
		<contour>
			<point x="17" y="-115" type="curve" smooth="yes"/>
			<point x="17" y="-182"/>
			<point x="62" y="-230"/>
			<point x="145" y="-252" type="curve"/>
			<point x="174" y="-197" type="line"/>
			<point x="116" y="-172"/>
			<point x="99" y="-147"/>
			<point x="99" y="-115" type="curve"/>
			<point x="99" y="-19"/>
			<point x="217" y="67"/>
			<point x="217" y="169" type="curve"/>
			<point x="217" y="216"/>
			<point x="194" y="250"/>
			<point x="145" y="267" type="curve"/>
			<point x="224" y="291"/>
			<point x="274" y="347"/>
			<point x="274" y="416" type="curve" smooth="yes"/>
			<point x="274" y="484"/>
			<point x="247" y="531"/>
			<point x="247" y="591" type="curve" smooth="yes"/>
			<point x="247" y="654"/>
			<point x="289" y="698"/>
			<point x="373" y="726" type="curve"/>
			<point x="368" y="787" type="line"/>
			<point x="243" y="762"/>
			<point x="164" y="701"/>
			<point x="164" y="595" type="curve" smooth="yes"/>
			<point x="164" y="537"/>
			<point x="194" y="482"/>
			<point x="194" y="424" type="curve" smooth="yes"/>
			<point x="194" y="360"/>
			<point x="148" y="311"/>
			<point x="59" y="296" type="curve"/>
			<point x="47" y="241" type="line"/>
			<point x="107" y="227"/>
			<point x="137" y="204"/>
			<point x="137" y="155" type="curve" smooth="yes"/>
			<point x="137" y="73"/>
			<point x="17" y="-19"/>
		</contour>
	</outline>
</glyph>
<glyph name="bar" format="2">
	<advance width="247"/>
	<unicode hex="007C"/>
	<outline>
		<contour>
			<point x="-24" y="-215" type="line"/>
			<point x="59" y="-215" type="line"/>
			<point x="258" y="720" type="line"/>
			<point x="175" y="720" type="line"/>
		</contour>
	</outline>
</glyph>
<glyph name="braceright" format="2">
	<advance width="300"/>
	<unicode hex="007D"/>
	<outline>
		<contour>
			<point x="-79" y="-190" type="curve"/>
			<point x="-74" y="-251" type="line"/>
			<point x="51" y="-226"/>
			<point x="130" y="-165"/>
			<point x="130" y="-59" type="curve" smooth="yes"/>
			<point x="130" y="-1"/>
			<point x="100" y="54"/>
			<point x="100" y="112" type="curve" smooth="yes"/>
			<point x="100" y="176"/>
			<point x="146" y="225"/>
			<point x="235" y="240" type="curve"/>
			<point x="247" y="295" type="line"/>
			<point x="187" y="309"/>
			<point x="157" y="332"/>
			<point x="157" y="381" type="curve" smooth="yes"/>
			<point x="157" y="463"/>
			<point x="277" y="555"/>
			<point x="277" y="651" type="curve" smooth="yes"/>
			<point x="277" y="718"/>
			<point x="232" y="766"/>
			<point x="149" y="788" type="curve"/>
			<point x="120" y="733" type="line"/>
			<point x="178" y="708"/>
			<point x="195" y="683"/>
			<point x="195" y="651" type="curve"/>
			<point x="195" y="555"/>
			<point x="77" y="469"/>
			<point x="77" y="367" type="curve"/>
			<point x="77" y="320"/>
			<point x="100" y="286"/>
			<point x="149" y="269" type="curve"/>
			<point x="70" y="245"/>
			<point x="20" y="189"/>
			<point x="20" y="120" type="curve" smooth="yes"/>
			<point x="20" y="52"/>
			<point x="47" y="5"/>
			<point x="47" y="-55" type="curve" smooth="yes"/>
			<point x="47" y="-118"/>
			<point x="5" y="-162"/>
		</contour>
	</outline>
</glyph>
<glyph name="exclamdown" format="2">
	<advance width="275"/>
	<unicode hex="00A1"/>
	<outline>
		<contour>
			<point x="-9" y="-185" type="line"/>
			<point x="86" y="-185" type="line"/>
			<point x="125" y="0" type="line"/>
			<point x="175" y="310" type="line"/>
			<point x="112" y="310" type="line"/>
			<point x="30" y="0" type="line"/>
		</contour>
		<contour>
			<point x="118" y="454" type="curve" smooth="yes"/>
			<point x="118" y="427"/>
			<point x="135" y="407"/>
			<point x="166" y="407" type="curve" smooth="yes"/>
			<point x="202" y="407"/>
			<point x="235" y="436"/>
			<point x="235" y="478" type="curve" smooth="yes"/>
			<point x="235" y="504"/>
			<point x="218" y="524"/>
			<point x="187" y="524" type="curve" smooth="yes"/>
			<point x="153" y="524"/>
			<point x="118" y="497"/>
		</contour>
	</outline>
</glyph>
<glyph name="cent" format="2">
  <advance width="500"/>
  <unicode hex="00A2"/>
  <outline>
    <contour>
      <point x="79" y="208" type="curve" smooth="yes"/>
      <point x="79" y="99"/>
      <point x="133" y="28"/>
      <point x="228" y="28" type="curve"/>
      <point x="290" y="28"/>
      <point x="353" y="64"/>
      <point x="401" y="121" type="curve"/>
      <point x="349" y="176" type="line"/>
      <point x="316" y="134"/>
      <point x="280" y="105"/>
      <point x="241" y="105" type="curve" smooth="yes"/>
      <point x="192" y="105"/>
      <point x="167" y="147"/>
      <point x="167" y="228" type="curve" smooth="yes"/>
      <point x="167" y="360"/>
      <point x="245" y="484"/>
      <point x="335" y="484" type="curve" smooth="yes"/>
      <point x="366" y="484"/>
      <point x="389" y="466"/>
      <point x="407" y="430" type="curve"/>
      <point x="469" y="485" type="line"/>
      <point x="445" y="532"/>
      <point x="400" y="563"/>
      <point x="341" y="563" type="curve" smooth="yes"/>
      <point x="188" y="563"/>
      <point x="79" y="395"/>
    </contour>
    <contour>
      <point x="156" y="-100" type="line"/>
      <point x="232" y="-100" type="line"/>
      <point x="316" y="295" type="line"/>
      <point x="240" y="295" type="line"/>
    </contour>
    <contour>
      <point x="240" y="295" type="line"/>
      <point x="316" y="295" type="line"/>
      <point x="401" y="695" type="line"/>
      <point x="325" y="695" type="line"/>
    </contour>
  </outline>
</glyph>
<glyph name="currency" format="2">
	<advance width="500"/>
	<unicode hex="00A4"/>
	<outline>
		<contour>
			<point x="-4.5" y="140" type="line"/>
			<point x="46.5" y="80" type="line"/>
			<point x="131.5" y="161" type="line"/>
			<point x="80.5" y="223" type="line"/>
		</contour>
		<contour>
			<point x="68.5" y="289" type="curve" smooth="yes"/>
			<point x="68.5" y="171"/>
			<point x="126.5" y="108"/>
			<point x="217.5" y="108" type="curve" smooth="yes"/>
			<point x="345.5" y="108"/>
			<point x="459.5" y="234"/>
			<point x="459.5" y="401" type="curve" smooth="yes"/>
			<point x="459.5" y="519"/>
			<point x="401.5" y="582"/>
			<point x="309.5" y="582" type="curve" smooth="yes"/>
			<point x="183.5" y="582"/>
			<point x="68.5" y="452"/>
		</contour>
		<contour>
			<point x="85.5" y="559" type="line"/>
			<point x="135.5" y="476" type="line"/>
			<point x="203.5" y="528" type="line"/>
			<point x="153.5" y="609" type="line"/>
		</contour>
		<contour>
			<point x="149.5" y="295" type="curve" smooth="yes"/>
			<point x="149.5" y="404"/>
			<point x="210.5" y="505"/>
			<point x="296.5" y="505" type="curve" smooth="yes"/>
			<point x="351.5" y="505"/>
			<point x="378.5" y="466"/>
			<point x="378.5" y="396" type="curve" smooth="yes"/>
			<point x="378.5" y="288"/>
			<point x="318.5" y="185"/>
			<point x="231.5" y="185" type="curve" smooth="yes"/>
			<point x="175.5" y="185"/>
			<point x="149.5" y="225"/>
		</contour>
		<contour>
			<point x="322.5" y="162" type="line"/>
			<point x="373.5" y="81" type="line"/>
			<point x="440.5" y="131" type="line"/>
			<point x="390.5" y="214" type="line"/>
		</contour>
		<contour>
			<point x="395.5" y="529" type="line"/>
			<point x="446.5" y="467" type="line"/>
			<point x="531.5" y="550" type="line"/>
			<point x="480.5" y="610" type="line"/>
		</contour>
	</outline>
</glyph>
<glyph name="yen" format="2">
	<advance width="500"/>
	<unicode hex="00A5"/>
	<outline>
		<contour>
			<point x="45.5" y="133" type="line"/>
			<point x="390.5" y="133" type="line"/>
			<point x="406.5" y="205" type="line"/>
			<point x="61.5" y="205" type="line"/>
		</contour>
		<contour>
			<point x="78.5" y="285" type="line"/>
			<point x="423.5" y="285" type="line"/>
			<point x="438.5" y="357" type="line"/>
			<point x="93.5" y="357" type="line"/>
		</contour>
		<contour>
			<point x="95.5" y="690" type="line"/>
			<point x="209.5" y="274" type="line"/>
			<point x="258.5" y="274" type="line"/>
			<point x="273.5" y="345" type="line"/>
			<point x="188.5" y="690" type="line"/>
		</contour>
		<contour>
			<point x="144.5" y="0" type="line"/>
			<point x="234.5" y="0" type="line"/>
			<point x="304.5" y="329" type="line"/>
			<point x="214.5" y="329" type="line"/>
		</contour>
		<contour>
			<point x="238" y="274" type="line"/>
			<point x="286" y="274" type="line"/>
			<point x="578" y="690" type="line"/>
			<point x="479" y="690" type="line"/>
			<point x="253" y="345" type="line"/>
		</contour>
	</outline>
</glyph>
<glyph name="copyright" format="2">
	<advance width="827"/>
	<unicode hex="00A9"/>
	<outline>
		<contour>
			<point x="427" y="-10" type="curve" smooth="yes"/>
			<point x="627" y="-10"/>
			<point x="782" y="145"/>
			<point x="782" y="345" type="curve" smooth="yes"/>
			<point x="782" y="545"/>
			<point x="627" y="700"/>
			<point x="427" y="700" type="curve" smooth="yes"/>
			<point x="227" y="700"/>
			<point x="72" y="545"/>
			<point x="72" y="345" type="curve" smooth="yes"/>
			<point x="72" y="145"/>
			<point x="227" y="-10"/>
		</contour>
		<contour>
			<point x="427" y="60" type="curve" smooth="yes"/>
			<point x="267" y="60"/>
			<point x="144" y="185"/>
			<point x="144" y="345" type="curve" smooth="yes"/>
			<point x="144" y="505"/>
			<point x="267" y="630"/>
			<point x="427" y="630" type="curve" smooth="yes"/>
			<point x="587" y="630"/>
			<point x="710" y="505"/>
			<point x="710" y="345" type="curve" smooth="yes"/>
			<point x="710" y="185"/>
			<point x="587" y="60"/>
		</contour>
		<contour>
			<point x="238" y="345" type="curve" smooth="yes"/>
			<point x="238" y="210"/>
			<point x="324" y="135"/>
			<point x="427" y="135" type="curve" smooth="yes"/>
			<point x="479" y="135"/>
			<point x="523" y="155"/>
			<point x="559" y="191" type="curve"/>
			<point x="512" y="241" type="line"/>
			<point x="490" y="217"/>
			<point x="462" y="205"/>
			<point x="428" y="205" type="curve" smooth="yes"/>
			<point x="362" y="205"/>
			<point x="312" y="254"/>
			<point x="312" y="345" type="curve" smooth="yes"/>
			<point x="312" y="436"/>
			<point x="362" y="485"/>
			<point x="428" y="485" type="curve" smooth="yes"/>
			<point x="458" y="485"/>
			<point x="484" y="474"/>
			<point x="507" y="450" type="curve"/>
			<point x="554" y="500" type="line"/>
			<point x="518" y="535"/>
			<point x="475" y="555"/>
			<point x="427" y="555" type="curve" smooth="yes"/>
			<point x="324" y="555"/>
			<point x="238" y="480"/>
		</contour>
	</outline>
</glyph>
<glyph name="logicalnot" format="2">
	<advance width="500"/>
	<unicode hex="00AC"/>
	<outline>
		<contour>
			<point x="49.5" y="251" type="line"/>
			<point x="434.5" y="251" type="line"/>
			<point x="453.5" y="329" type="line"/>
			<point x="66.5" y="329" type="line"/>
		</contour>
		<contour>
			<point x="315.5" y="66" type="line"/>
			<point x="397.5" y="66" type="line"/>
			<point x="453.5" y="329" type="line"/>
			<point x="371.5" y="329" type="line"/>
		</contour>
	</outline>
</glyph>
<glyph name="macron" format="2">
  <advance width="500"/>
  <unicode hex="00AF"/>
  <anchor x="299" y="514" name="_top"/>
  <outline>
    <contour>
      <point x="196" y="635" type="line"/>
      <point x="454" y="635" type="line"/>
      <point x="468" y="702" type="line"/>
      <point x="210" y="702" type="line"/>
    </contour>
  </outline>
</glyph>
<glyph name="degree" format="2">
	<advance width="328"/>
	<unicode hex="00B0"/>
	<outline>
		<contour>
			<point x="90" y="527" type="curve" smooth="yes"/>
			<point x="90" y="459"/>
			<point x="131" y="405"/>
			<point x="201" y="405" type="curve" smooth="yes"/>
			<point x="287" y="405"/>
			<point x="356" y="481"/>
			<point x="356" y="579" type="curve" smooth="yes"/>
			<point x="356" y="647"/>
			<point x="314" y="700"/>
			<point x="246" y="700" type="curve" smooth="yes"/>
			<point x="158" y="700"/>
			<point x="90" y="625"/>
		</contour>
		<contour>
			<point x="154" y="531" type="curve" smooth="yes"/>
			<point x="154" y="591"/>
			<point x="192" y="639"/>
			<point x="236" y="639" type="curve" smooth="yes"/>
			<point x="271" y="639"/>
			<point x="292" y="612"/>
			<point x="292" y="570" type="curve" smooth="yes"/>
			<point x="292" y="515"/>
			<point x="252" y="466"/>
			<point x="211" y="466" type="curve" smooth="yes"/>
			<point x="174" y="466"/>
			<point x="154" y="495"/>
		</contour>
	</outline>
</glyph>
<glyph name="plusminus" format="2">
	<advance width="500"/>
	<unicode hex="00B1"/>
	<outline>
		<contour>
			<point x="11" y="66" type="line"/>
			<point x="397" y="66" type="line"/>
			<point x="414" y="144" type="line"/>
			<point x="28" y="144" type="line"/>
		</contour>
		<contour>
			<point x="57" y="280" type="line"/>
			<point x="443" y="280" type="line"/>
			<point x="459" y="358" type="line"/>
			<point x="73" y="358" type="line"/>
		</contour>
		<contour>
			<point x="163" y="66" type="line"/>
			<point x="245" y="66" type="line"/>
			<point x="340" y="515" type="line"/>
			<point x="258" y="515" type="line"/>
		</contour>
	</outline>
</glyph>
<glyph name="twosuperior" format="2">
	<advance width="370"/>
	<unicode hex="00B2"/>
	<outline>
		<contour>
			<point x="63" y="290" type="line"/>
			<point x="308" y="290" type="line"/>
			<point x="321" y="354" type="line"/>
			<point x="124" y="354" type="line"/>
			<point x="72" y="336" type="line"/>
		</contour>
		<contour>
			<point x="72" y="336" type="line"/>
			<point x="105" y="290" type="line"/>
			<point x="254" y="431" type="line" smooth="yes"/>
			<point x="321" y="495"/>
			<point x="358" y="540"/>
			<point x="358" y="592" type="curve" smooth="yes"/>
			<point x="358" y="656"/>
			<point x="315" y="700"/>
			<point x="250" y="700" type="curve"/>
			<point x="195" y="700"/>
			<point x="155" y="670"/>
			<point x="122" y="634" type="curve"/>
			<point x="161" y="585" type="line"/>
			<point x="188" y="618"/>
			<point x="214" y="635"/>
			<point x="244" y="635" type="curve"/>
			<point x="270" y="635"/>
			<point x="289" y="617"/>
			<point x="289" y="587" type="curve" smooth="yes"/>
			<point x="289" y="553"/>
			<point x="263" y="523"/>
			<point x="213" y="474" type="curve" smooth="yes"/>
		</contour>
	</outline>
</glyph>
<glyph name="threesuperior" format="1">
  <advance width="369.61408152239596"/>
  <unicode hex="00B3"/>
  <outline>
    <contour>
      <point x="58" y="337" type="line"/>
      <point x="85" y="300"/>
      <point x="128" y="281"/>
      <point x="179" y="281" type="curve" smooth="yes"/>
      <point x="264" y="281"/>
      <point x="332" y="336"/>
      <point x="332" y="424" type="curve" smooth="yes"/>
      <point x="332" y="484"/>
      <point x="293" y="522"/>
      <point x="229" y="522" type="curve" smooth="yes"/>
      <point x="197" y="522" type="line"/>
      <point x="163" y="514" type="line"/>
      <point x="154" y="471" type="line"/>
      <point x="200" y="471" type="line" smooth="yes"/>
      <point x="242" y="471"/>
      <point x="264" y="454"/>
      <point x="263" y="419" type="curve" smooth="yes"/>
      <point x="261" y="373"/>
      <point x="226" y="345"/>
      <point x="186" y="345" type="curve" smooth="yes"/>
      <point x="150" y="345"/>
      <point x="123" y="360"/>
      <point x="105" y="387" type="curve"/>
    </contour>
    <contour>
      <point x="133" y="628" type="line"/>
      <point x="330" y="628" type="line"/>
      <point x="362" y="640" type="line"/>
      <point x="373" y="690" type="line"/>
      <point x="147" y="690" type="line"/>
    </contour>
    <contour>
      <point x="163" y="514" type="line"/>
      <point x="238" y="514" type="line"/>
      <point x="362" y="640" type="line"/>
      <point x="336" y="690" type="line"/>
    </contour>
  </outline>
</glyph>
<glyph name="paragraph" format="2">
	<advance width="618"/>
	<unicode hex="00B6"/>
	<outline>
		<contour>
			<point x="85" y="399" type="curve" smooth="yes"/>
			<point x="81" y="288"/>
			<point x="154" y="208"/>
			<point x="248" y="208" type="curve" smooth="yes"/>
			<point x="278" y="208" type="line"/>
			<point x="193" y="-195" type="line"/>
			<point x="274" y="-195" type="line"/>
			<point x="462" y="690" type="line"/>
			<point x="372" y="690" type="line" smooth="yes"/>
			<point x="213" y="690"/>
			<point x="90" y="557"/>
		</contour>
		<contour>
			<point x="352" y="-195" type="line"/>
			<point x="434" y="-195" type="line"/>
			<point x="622" y="690" type="line"/>
			<point x="540" y="690" type="line"/>
		</contour>
	</outline>
</glyph>
<glyph name="cedilla" format="2">
	<advance width="500"/>
	<unicode hex="00B8"/>
	<outline>
		<contour>
			<point x="90" y="-195" type="line"/>
			<point x="119" y="-195" type="line" smooth="yes"/>
			<point x="189" y="-195"/>
			<point x="245" y="-163"/>
			<point x="245" y="-108" type="curve" smooth="yes"/>
			<point x="245" y="-80"/>
			<point x="225" y="-59"/>
			<point x="195" y="-53" type="curve"/>
			<point x="217" y="9" type="line"/>
			<point x="173" y="15" type="line"/>
			<point x="133" y="-86" type="line"/>
			<point x="151" y="-88" type="line" smooth="yes"/>
			<point x="174" y="-91"/>
			<point x="183" y="-100"/>
			<point x="183" y="-112" type="curve" smooth="yes"/>
			<point x="183" y="-133"/>
			<point x="164" y="-148"/>
			<point x="108" y="-148" type="curve"/>
		</contour>
	</outline>
</glyph>
<glyph name="onesuperior" format="2">
  <advance width="370"/>
  <unicode hex="00B9"/>
  <outline>
    <contour>
      <point x="74" y="290" type="line"/>
      <point x="317" y="290" type="line"/>
      <point x="330" y="353" type="line"/>
      <point x="87" y="353" type="line"/>
    </contour>
    <contour>
      <point x="128" y="626" type="line"/>
      <point x="147" y="567" type="line"/>
      <point x="281" y="631" type="line"/>
      <point x="263" y="690" type="line"/>
    </contour>
    <contour>
      <point x="160" y="290" type="line"/>
      <point x="229" y="290" type="line"/>
      <point x="314" y="690" type="line"/>
      <point x="263" y="690" type="line"/>
      <point x="233" y="637" type="line"/>
    </contour>
  </outline>
</glyph>
<glyph name="guillemetright" format="2">
	<advance width="416"/>
	<unicode hex="00BB"/>
	<outline>
		<contour>
			<point x="-20" y="79" type="line"/>
			<point x="81" y="79" type="line"/>
			<point x="212" y="243" type="line"/>
			<point x="220" y="282" type="line"/>
			<point x="142" y="275" type="line"/>
		</contour>
		<contour>
			<point x="62" y="456" type="line"/>
			<point x="146" y="251" type="line"/>
			<point x="212" y="243" type="line"/>
			<point x="220" y="282" type="line"/>
			<point x="149" y="456" type="line"/>
		</contour>
		<contour>
			<point x="153" y="79" type="line"/>
			<point x="254" y="79" type="line"/>
			<point x="385" y="243" type="line"/>
			<point x="393" y="282" type="line"/>
			<point x="315" y="275" type="line"/>
		</contour>
		<contour>
			<point x="235" y="456" type="line"/>
			<point x="319" y="251" type="line"/>
			<point x="385" y="243" type="line"/>
			<point x="393" y="282" type="line"/>
			<point x="322" y="456" type="line"/>
		</contour>
	</outline>
</glyph>
<glyph name="questiondown" format="2">
	<advance width="436"/>
	<unicode hex="00BF"/>
	<outline>
		<contour>
			<point x="-16" y="-38" type="curve" smooth="yes"/>
			<point x="-16" y="-122"/>
			<point x="38" y="-191"/>
			<point x="135" y="-191" type="curve" smooth="yes"/>
			<point x="209" y="-191"/>
			<point x="288" y="-149"/>
			<point x="339" y="-89" type="curve"/>
			<point x="288" y="-29" type="line"/>
			<point x="246" y="-82"/>
			<point x="193" y="-108"/>
			<point x="150" y="-108" type="curve" smooth="yes"/>
			<point x="101" y="-108"/>
			<point x="74" y="-73"/>
			<point x="74" y="-26" type="curve" smooth="yes"/>
			<point x="74" y="18"/>
			<point x="98" y="62"/>
			<point x="176" y="120" type="curve" smooth="yes"/>
			<point x="218" y="151"/>
			<point x="246" y="186"/>
			<point x="251" y="241" type="curve" smooth="yes"/>
			<point x="257" y="314" type="line"/>
			<point x="193" y="314" type="line"/>
			<point x="180" y="256" type="line" smooth="yes"/>
			<point x="172" y="221"/>
			<point x="155" y="197"/>
			<point x="132" y="179" type="curve" smooth="yes"/>
			<point x="40" y="106"/>
			<point x="-16" y="51"/>
		</contour>
		<contour>
			<point x="194" y="454" type="curve" smooth="yes"/>
			<point x="194" y="427"/>
			<point x="211" y="407"/>
			<point x="242" y="407" type="curve" smooth="yes"/>
			<point x="278" y="407"/>
			<point x="311" y="436"/>
			<point x="311" y="478" type="curve" smooth="yes"/>
			<point x="311" y="504"/>
			<point x="294" y="524"/>
			<point x="263" y="524" type="curve" smooth="yes"/>
			<point x="229" y="524"/>
			<point x="194" y="497"/>
		</contour>
	</outline>
</glyph>
<glyph name="Thorn" format="2">
	<advance width="502"/>
	<unicode hex="00DE"/>
	<outline>
		<contour>
			<point x="17" y="0" type="line"/>
			<point x="106" y="0" type="line"/>
			<point x="253" y="690" type="line"/>
			<point x="164" y="690" type="line"/>
		</contour>
		<contour>
			<point x="86" y="134" type="line"/>
			<point x="237" y="134" type="line" smooth="yes"/>
			<point x="378" y="134"/>
			<point x="490" y="225"/>
			<point x="490" y="392" type="curve" smooth="yes"/>
			<point x="490" y="488"/>
			<point x="426" y="556"/>
			<point x="330" y="556" type="curve" smooth="yes"/>
			<point x="179" y="556" type="line"/>
			<point x="159" y="474" type="line"/>
			<point x="307" y="474" type="line" smooth="yes"/>
			<point x="364" y="474"/>
			<point x="397" y="435"/>
			<point x="397" y="378" type="curve" smooth="yes"/>
			<point x="397" y="277"/>
			<point x="330" y="216"/>
			<point x="253" y="216" type="curve" smooth="yes"/>
			<point x="106" y="216" type="line"/>
		</contour>
	</outline>
</glyph>
<glyph name="germandbls" format="2">
	<advance width="510"/>
	<unicode hex="00DF"/>
	<outline>
		<contour>
			<point x="13" y="0" type="line"/>
			<point x="101" y="0" type="line"/>
			<point x="212" y="522" type="line" smooth="yes"/>
			<point x="231" y="611"/>
			<point x="273" y="651"/>
			<point x="322" y="651" type="curve" smooth="yes"/>
			<point x="361" y="651"/>
			<point x="383" y="625"/>
			<point x="383" y="583" type="curve" smooth="yes"/>
			<point x="383" y="516"/>
			<point x="326" y="463"/>
			<point x="240" y="391" type="curve"/>
			<point x="223" y="321" type="line"/>
			<point x="309" y="252" type="line" smooth="yes"/>
			<point x="339" y="228"/>
			<point x="357" y="197"/>
			<point x="357" y="159" type="curve" smooth="yes"/>
			<point x="357" y="111"/>
			<point x="321" y="66"/>
			<point x="269" y="66" type="curve" smooth="yes"/>
			<point x="237" y="66"/>
			<point x="211" y="81"/>
			<point x="189" y="102" type="curve"/>
			<point x="147" y="33" type="line"/>
			<point x="168" y="15"/>
			<point x="208" y="-10"/>
			<point x="268" y="-10" type="curve" smooth="yes"/>
			<point x="368" y="-10"/>
			<point x="445" y="58"/>
			<point x="445" y="167" type="curve" smooth="yes"/>
			<point x="445" y="227"/>
			<point x="413" y="272"/>
			<point x="368" y="309" type="curve" smooth="yes"/>
			<point x="312" y="355" type="line"/>
			<point x="396" y="424"/>
			<point x="470" y="490"/>
			<point x="470" y="595" type="curve" smooth="yes"/>
			<point x="470" y="677"/>
			<point x="417" y="730"/>
			<point x="329" y="730" type="curve" smooth="yes"/>
			<point x="219" y="730"/>
			<point x="154" y="664"/>
			<point x="125" y="526" type="curve" smooth="yes"/>
		</contour>
	</outline>
</glyph>
<glyph name="ae" format="1">
  <advance width="713.7829185047282"/>
  <unicode hex="00E6"/>
  <outline>
    <contour>
      <point x="16" y="124" type="curve" smooth="yes"/>
      <point x="16" y="43"/>
      <point x="69" y="-10"/>
      <point x="147" y="-10" type="curve" smooth="yes"/>
      <point x="205" y="-10"/>
      <point x="267" y="18"/>
      <point x="321" y="89" type="curve"/>
      <point x="306" y="148" type="line"/>
      <point x="268" y="95"/>
      <point x="217" y="64"/>
      <point x="172" y="64" type="curve" smooth="yes"/>
      <point x="129" y="64"/>
      <point x="105" y="91"/>
      <point x="105" y="130" type="curve" smooth="yes"/>
      <point x="105" y="203"/>
      <point x="190" y="248"/>
      <point x="268" y="248" type="curve" smooth="yes"/>
      <point x="285" y="248"/>
      <point x="301" y="247"/>
      <point x="316" y="246" type="curve"/>
      <point x="329" y="302" type="line"/>
      <point x="311" y="305"/>
      <point x="280" y="306"/>
      <point x="254" y="306" type="curve" smooth="yes"/>
      <point x="124" y="306"/>
      <point x="16" y="240"/>
    </contour>
    <contour>
      <point x="89" y="480" type="curve"/>
      <point x="122" y="404" type="line"/>
      <point x="163" y="431"/>
      <point x="214" y="445"/>
      <point x="251" y="445" type="curve" smooth="yes"/>
      <point x="299" y="445"/>
      <point x="321" y="421"/>
      <point x="321" y="362" type="curve" smooth="yes"/>
      <point x="321" y="345"/>
      <point x="319" y="339"/>
      <point x="309" y="289" type="curve"/>
      <point x="391" y="277" type="line"/>
      <point x="399" y="329"/>
      <point x="403" y="363"/>
      <point x="403" y="383" type="curve" smooth="yes"/>
      <point x="406" y="476"/>
      <point x="347" y="525"/>
      <point x="262" y="525" type="curve" smooth="yes"/>
      <point x="204" y="525"/>
      <point x="136" y="504"/>
    </contour>
    <contour>
      <point x="297" y="170" type="curve" smooth="yes"/>
      <point x="297" y="57"/>
      <point x="361" y="-10"/>
      <point x="449" y="-10" type="curve" smooth="yes"/>
      <point x="518" y="-10"/>
      <point x="578" y="26"/>
      <point x="628" y="81" type="curve"/>
      <point x="579" y="135" type="line"/>
      <point x="546" y="94"/>
      <point x="510" y="67"/>
      <point x="468" y="67" type="curve" smooth="yes"/>
      <point x="412" y="67"/>
      <point x="381" y="105"/>
      <point x="381" y="185" type="curve" smooth="yes"/>
      <point x="381" y="333"/>
      <point x="466" y="448"/>
      <point x="547" y="448" type="curve" smooth="yes"/>
      <point x="588" y="448"/>
      <point x="606" y="420"/>
      <point x="605" y="385" type="curve" smooth="yes"/>
      <point x="603" y="329"/>
      <point x="543" y="291"/>
      <point x="428" y="291" type="curve" smooth="yes"/>
      <point x="413" y="291"/>
      <point x="394" y="292"/>
      <point x="374" y="296" type="curve"/>
      <point x="360" y="240" type="line"/>
      <point x="385" y="234"/>
      <point x="409" y="233"/>
      <point x="427" y="233" type="curve" smooth="yes"/>
      <point x="588" y="233"/>
      <point x="685" y="293"/>
      <point x="688" y="392" type="curve"/>
      <point x="691" y="466"/>
      <point x="644" y="525"/>
      <point x="561" y="525" type="curve" smooth="yes"/>
      <point x="415" y="525"/>
      <point x="297" y="355"/>
    </contour>
    <contour>
      <point x="413" y="514" type="move" name="top"/>
    </contour>
  </outline>
</glyph>
<glyph name="eth" format="2">
	<advance width="478"/>
	<unicode hex="00F0"/>
	<outline>
		<contour>
			<point x="33" y="191" type="curve" smooth="yes"/>
			<point x="33" y="73"/>
			<point x="93" y="-10"/>
			<point x="184" y="-10" type="curve" smooth="yes"/>
			<point x="321" y="-10"/>
			<point x="435" y="152"/>
			<point x="435" y="362" type="curve" smooth="yes"/>
			<point x="435" y="508"/>
			<point x="376" y="643"/>
			<point x="307" y="720" type="curve"/>
			<point x="206" y="720" type="line"/>
			<point x="299" y="625"/>
			<point x="359" y="507"/>
			<point x="359" y="358" type="curve" smooth="yes"/>
			<point x="359" y="174"/>
			<point x="272" y="66"/>
			<point x="195" y="66" type="curve" smooth="yes"/>
			<point x="144" y="66"/>
			<point x="115" y="116"/>
			<point x="115" y="195" type="curve" smooth="yes"/>
			<point x="115" y="291"/>
			<point x="174" y="404"/>
			<point x="259" y="404" type="curve" smooth="yes"/>
			<point x="302" y="404"/>
			<point x="338" y="381"/>
			<point x="361" y="329" type="curve"/>
			<point x="382" y="390" type="line"/>
			<point x="365" y="431"/>
			<point x="323" y="479"/>
			<point x="251" y="479" type="curve" smooth="yes"/>
			<point x="132" y="479"/>
			<point x="33" y="339"/>
		</contour>
		<contour>
			<point x="185" y="593" type="line"/>
			<point x="213" y="537" type="line"/>
			<point x="472" y="674" type="line"/>
			<point x="445" y="729" type="line"/>
		</contour>
	</outline>
</glyph>
<glyph name="divide" format="2">
  <advance width="500"/>
  <unicode hex="00F7"/>
  <outline>
    <contour>
      <point x="48.5" y="251" type="line"/>
      <point x="435.5" y="251" type="line"/>
      <point x="454.5" y="329" type="line"/>
      <point x="67.5" y="329" type="line"/>
    </contour>
    <contour>
      <point x="150.5" y="89" type="curve" smooth="yes"/>
      <point x="150.5" y="63"/>
      <point x="167.5" y="43"/>
      <point x="198.5" y="43" type="curve" smooth="yes"/>
      <point x="233.5" y="43"/>
      <point x="267.5" y="70"/>
      <point x="267.5" y="113" type="curve" smooth="yes"/>
      <point x="267.5" y="140"/>
      <point x="250.5" y="160"/>
      <point x="219.5" y="160" type="curve" smooth="yes"/>
      <point x="183.5" y="160"/>
      <point x="150.5" y="131"/>
    </contour>
    <contour>
      <point x="231" y="465" type="curve" smooth="yes"/>
      <point x="231" y="439"/>
      <point x="248" y="419"/>
      <point x="279" y="419" type="curve" smooth="yes"/>
      <point x="314" y="419"/>
      <point x="348" y="446"/>
      <point x="348" y="489" type="curve" smooth="yes"/>
      <point x="348" y="516"/>
      <point x="331" y="536"/>
      <point x="300" y="536" type="curve" smooth="yes"/>
      <point x="264" y="536"/>
      <point x="231" y="507"/>
    </contour>
  </outline>
</glyph>
<glyph name="eogonek" format="2">
	<advance width="447"/>
	<unicode hex="0119"/>
	<outline>
		<contour>
			<point x="30" y="170" type="curve" smooth="yes"/>
			<point x="30" y="63"/>
			<point x="86" y="-10"/>
			<point x="182" y="-10" type="curve" smooth="yes"/>
			<point x="238" y="-10"/>
			<point x="306" y="20"/>
			<point x="362" y="80" type="curve"/>
			<point x="313" y="138" type="line"/>
			<point x="276" y="91"/>
			<point x="234" y="67"/>
			<point x="195" y="67" type="curve" smooth="yes"/>
			<point x="144" y="67"/>
			<point x="113" y="112"/>
			<point x="113" y="177" type="curve" smooth="yes"/>
			<point x="113" y="314"/>
			<point x="190" y="449"/>
			<point x="278" y="449" type="curve" smooth="yes"/>
			<point x="317" y="449"/>
			<point x="337" y="424"/>
			<point x="337" y="390" type="curve" smooth="yes"/>
			<point x="337" y="342"/>
			<point x="290" y="291"/>
			<point x="167" y="291" type="curve" smooth="yes"/>
			<point x="148" y="291"/>
			<point x="128" y="292"/>
			<point x="105" y="296" type="curve"/>
			<point x="93" y="237" type="line"/>
			<point x="122" y="232"/>
			<point x="146" y="230"/>
			<point x="170" y="230" type="curve" smooth="yes"/>
			<point x="314" y="230"/>
			<point x="424" y="289"/>
			<point x="424" y="401" type="curve" smooth="yes"/>
			<point x="424" y="472"/>
			<point x="373" y="525"/>
			<point x="291" y="525" type="curve" smooth="yes"/>
			<point x="145" y="525"/>
			<point x="30" y="364"/>
		</contour>
		<contour>
			<point x="153" y="-121" type="curve"/>
			<point x="153" y="-160"/>
			<point x="177" y="-195"/>
			<point x="229" y="-195" type="curve"/>
			<point x="255" y="-195"/>
			<point x="279" y="-187"/>
			<point x="301" y="-172" type="curve"/>
			<point x="281" y="-126" type="line"/>
			<point x="267" y="-135"/>
			<point x="250" y="-140"/>
			<point x="238" y="-140" type="curve" smooth="yes"/>
			<point x="220" y="-140"/>
			<point x="211" y="-126"/>
			<point x="211" y="-111" type="curve" smooth="yes"/>
			<point x="211" y="-57"/>
			<point x="308" y="-5"/>
			<point x="362" y="80" type="curve"/>
			<point x="236" y="0" type="line"/>
			<point x="195" y="-23"/>
			<point x="153" y="-65"/>
		</contour>
	</outline>
</glyph>
<glyph name="Hbar" format="2">
	<advance width="588"/>
	<unicode hex="0126"/>
	<outline>
		<contour>
			<point x="72" y="527" type="line"/>
			<point x="620" y="527" type="line"/>
			<point x="634" y="592" type="line"/>
			<point x="86" y="592" type="line"/>
		</contour>
		<contour>
			<point x="17" y="0" type="line"/>
			<point x="106" y="0" type="line"/>
			<point x="253" y="690" type="line"/>
			<point x="164" y="690" type="line"/>
		</contour>
		<contour>
			<point x="124" y="308" type="line"/>
			<point x="472" y="308" type="line"/>
			<point x="493" y="388" type="line"/>
			<point x="144" y="388" type="line"/>
		</contour>
		<contour>
			<point x="362" y="0" type="line"/>
			<point x="451" y="0" type="line"/>
			<point x="598" y="690" type="line"/>
			<point x="509" y="690" type="line"/>
		</contour>
	</outline>
</glyph>
<glyph name="dotlessi" format="2">
	<advance width="231"/>
	<unicode hex="0131"/>
	<anchor x="165" y="515" name="top"/>
	<outline>
		<contour>
			<point x="12" y="0" type="line"/>
			<point x="100" y="0" type="line"/>
			<point x="209" y="515" type="line"/>
			<point x="121" y="515" type="line"/>
		</contour>
	</outline>
</glyph>
<glyph name="kra" format="2">
  <advance width="454"/>
  <unicode hex="0138"/>
  <outline>
    <contour>
      <point x="13" y="0" type="line"/>
      <point x="99" y="0" type="line"/>
      <point x="210" y="515" type="line"/>
      <point x="123" y="515" type="line"/>
    </contour>
    <contour>
      <point x="105" y="140" type="line"/>
      <point x="472" y="515" type="line"/>
      <point x="363" y="515" type="line"/>
      <point x="132" y="262" type="line"/>
    </contour>
    <contour>
      <point x="195" y="274" type="line"/>
      <point x="290" y="0" type="line"/>
      <point x="384" y="0" type="line"/>
      <point x="262" y="327" type="line"/>
    </contour>
  </outline>
</glyph>
<glyph name="Lslash" format="2">
	<advance width="454"/>
	<unicode hex="0141"/>
	<outline>
		<contour>
			<point x="12" y="212" type="line"/>
			<point x="298" y="392" type="line"/>
			<point x="317" y="479" type="line"/>
			<point x="31" y="300" type="line"/>
		</contour>
		<contour>
			<point x="17" y="0" type="line"/>
			<point x="106" y="0" type="line"/>
			<point x="253" y="690" type="line"/>
			<point x="164" y="690" type="line"/>
		</contour>
		<contour>
			<point x="60" y="0" type="line"/>
			<point x="361" y="0" type="line"/>
			<point x="378" y="82" type="line"/>
			<point x="80" y="82" type="line"/>
		</contour>
	</outline>
</glyph>
<glyph name="Lslash" format="1">
  <advance width="453.5703619430582"/>
  <unicode hex="0141"/>
  <outline>
    <contour>
      <point x="12" y="212" type="line"/>
      <point x="298" y="392" type="line"/>
      <point x="317" y="479" type="line"/>
      <point x="31" y="300" type="line"/>
    </contour>
    <contour>
      <point x="17" y="0" type="line"/>
      <point x="106" y="0" type="line"/>
      <point x="253" y="690" type="line"/>
      <point x="164" y="690" type="line"/>
    </contour>
    <contour>
      <point x="60" y="0" type="line"/>
      <point x="361" y="0" type="line"/>
      <point x="378" y="82" type="line"/>
      <point x="80" y="82" type="line"/>
    </contour>
  </outline>
</glyph>
<glyph name="lslash" format="2">
	<advance width="244"/>
	<unicode hex="0142"/>
	<outline>
		<contour>
			<point x="13" y="0" type="line"/>
			<point x="101" y="0" type="line"/>
			<point x="257" y="732" type="line"/>
			<point x="165" y="716" type="line"/>
		</contour>
		<contour>
			<point x="12" y="213" type="line"/>
			<point x="249" y="353" type="line"/>
			<point x="268" y="441" type="line"/>
			<point x="31" y="300" type="line"/>
		</contour>
	</outline>
</glyph>
<glyph name="Eng" format="2">
	<advance width="590"/>
	<unicode hex="014A"/>
	<outline>
		<contour>
			<point x="17" y="0" type="line"/>
			<point x="101" y="0" type="line"/>
			<point x="248" y="690" type="line"/>
			<point x="164" y="690" type="line"/>
		</contour>
		<contour>
			<point x="194" y="690" type="line"/>
			<point x="369" y="0" type="line"/>
			<point x="449" y="0" type="line"/>
			<point x="275" y="690" type="line"/>
		</contour>
		<contour>
			<point x="214" y="-175" type="line"/>
			<point x="232" y="-186"/>
			<point x="258" y="-195"/>
			<point x="287" y="-195" type="curve" smooth="yes"/>
			<point x="367" y="-195"/>
			<point x="420" y="-155"/>
			<point x="446" y="-34" type="curve" smooth="yes"/>
			<point x="599" y="690" type="line"/>
			<point x="515" y="690" type="line"/>
			<point x="361" y="-32" type="line" smooth="yes"/>
			<point x="347" y="-97"/>
			<point x="320" y="-120"/>
			<point x="284" y="-120" type="curve" smooth="yes"/>
			<point x="269" y="-120"/>
			<point x="252" y="-115"/>
			<point x="240" y="-107" type="curve"/>
		</contour>
	</outline>
</glyph>
<glyph name="eng" format="2">
	<advance width="515"/>
	<unicode hex="014B"/>
	<outline>
		<contour>
			<point x="16" y="0" type="line"/>
			<point x="104" y="0" type="line"/>
			<point x="158" y="263" type="line" smooth="yes"/>
			<point x="182" y="381"/>
			<point x="245" y="448"/>
			<point x="309" y="448" type="curve" smooth="yes"/>
			<point x="345" y="448"/>
			<point x="371" y="422"/>
			<point x="371" y="373" type="curve"/>
			<point x="371" y="349"/>
			<point x="369" y="333"/>
			<point x="365" y="314" type="curve" smooth="yes"/>
			<point x="291" y="-32" type="line" smooth="yes"/>
			<point x="277" y="-97"/>
			<point x="250" y="-120"/>
			<point x="214" y="-120" type="curve" smooth="yes"/>
			<point x="199" y="-120"/>
			<point x="182" y="-115"/>
			<point x="170" y="-107" type="curve"/>
			<point x="144" y="-175" type="line"/>
			<point x="162" y="-186"/>
			<point x="188" y="-195"/>
			<point x="217" y="-195" type="curve" smooth="yes"/>
			<point x="297" y="-195"/>
			<point x="353" y="-155"/>
			<point x="379" y="-34" type="curve" smooth="yes"/>
			<point x="453" y="315" type="line" smooth="yes"/>
			<point x="457" y="332"/>
			<point x="462" y="361"/>
			<point x="462" y="388" type="curve" smooth="yes"/>
			<point x="462" y="476"/>
			<point x="413" y="525"/>
			<point x="335" y="525" type="curve" smooth="yes"/>
			<point x="277" y="525"/>
			<point x="215" y="485"/>
			<point x="178" y="415" type="curve"/>
			<point x="189" y="402" type="line"/>
			<point x="194" y="515" type="line"/>
			<point x="110" y="515" type="line"/>
			<point x="110" y="482" type="line" smooth="yes"/>
			<point x="110" y="450"/>
			<point x="106" y="423"/>
			<point x="99" y="391" type="curve" smooth="yes"/>
		</contour>
	</outline>
</glyph>
<glyph name="OE" format="2">
  <advance width="785"/>
  <unicode hex="0152"/>
  <outline>
    <contour>
      <point x="51" y="252" type="curve" smooth="yes"/>
      <point x="51" y="90"/>
      <point x="141" y="0"/>
      <point x="271" y="0" type="curve" smooth="yes"/>
      <point x="339" y="0" type="line"/>
      <point x="359" y="82" type="line"/>
      <point x="289" y="82" type="line" smooth="yes"/>
      <point x="198" y="82"/>
      <point x="146" y="147"/>
      <point x="146" y="261" type="curve" smooth="yes"/>
      <point x="146" y="443"/>
      <point x="254" y="608"/>
      <point x="400" y="608" type="curve" smooth="yes"/>
      <point x="465" y="608" type="line"/>
      <point x="485" y="690" type="line"/>
      <point x="414" y="690" type="line" smooth="yes"/>
      <point x="208" y="690"/>
      <point x="51" y="501"/>
    </contour>
    <contour>
      <point x="325" y="0" type="line"/>
      <point x="414" y="0" type="line"/>
      <point x="561" y="690" type="line"/>
      <point x="472" y="690" type="line"/>
    </contour>
    <contour>
      <point x="367" y="0" type="line"/>
      <point x="670" y="0" type="line"/>
      <point x="687" y="82" type="line"/>
      <point x="387" y="82" type="line"/>
    </contour>
    <contour>
      <point x="431" y="309" type="line"/>
      <point x="692" y="309" type="line"/>
      <point x="708" y="387" type="line"/>
      <point x="450" y="387" type="line"/>
    </contour>
    <contour>
      <point x="493" y="608" type="line"/>
      <point x="791" y="608" type="line"/>
      <point x="809" y="690" type="line"/>
      <point x="513" y="690" type="line"/>
    </contour>
  </outline>
</glyph>
<glyph name="Uogonek" format="2">
	<advance width="567"/>
	<unicode hex="0172"/>
	<outline>
		<contour>
			<point x="345" y="-172" type="curve"/>
			<point x="325" y="-126" type="line"/>
			<point x="311" y="-135"/>
			<point x="294" y="-140"/>
			<point x="282" y="-140" type="curve" smooth="yes"/>
			<point x="264" y="-140"/>
			<point x="255" y="-126"/>
			<point x="255" y="-111" type="curve" smooth="yes"/>
			<point x="255" y="-66"/>
			<point x="317" y="-18"/>
			<point x="375" y="39" type="curve" smooth="yes"/>
			<point x="424" y="87"/>
			<point x="470" y="150"/>
			<point x="491" y="248" type="curve" smooth="yes"/>
			<point x="585" y="690" type="line"/>
			<point x="497" y="690" type="line"/>
			<point x="406" y="264" type="line" smooth="yes"/>
			<point x="377" y="129"/>
			<point x="321" y="75"/>
			<point x="249" y="75" type="curve" smooth="yes"/>
			<point x="174" y="75"/>
			<point x="148" y="118"/>
			<point x="148" y="196" type="curve" smooth="yes"/>
			<point x="148" y="234"/>
			<point x="164" y="307"/>
			<point x="169" y="329" type="curve" smooth="yes"/>
			<point x="246" y="690" type="line"/>
			<point x="156" y="690" type="line"/>
			<point x="79" y="331" type="line" smooth="yes"/>
			<point x="74" y="306"/>
			<point x="57" y="229"/>
			<point x="57" y="180" type="curve"/>
			<point x="57" y="74"/>
			<point x="110" y="-10"/>
			<point x="231" y="-10" type="curve" smooth="yes"/>
			<point x="244" y="-10"/>
			<point x="256" y="-9"/>
			<point x="268" y="-7" type="curve"/>
			<point x="231" y="-31"/>
			<point x="197" y="-70"/>
			<point x="197" y="-121" type="curve"/>
			<point x="197" y="-160"/>
			<point x="221" y="-195"/>
			<point x="273" y="-195" type="curve"/>
			<point x="299" y="-195"/>
			<point x="323" y="-187"/>
		</contour>
	</outline>
</glyph>
<glyph name="florin" format="2">
  <advance width="500"/>
  <unicode hex="0192"/>
  <outline>
    <contour>
      <point x="-23.0" y="-176" type="line"/>
      <point x="-6.0" y="-186"/>
      <point x="22.0" y="-195"/>
      <point x="52.0" y="-195" type="curve" smooth="yes"/>
      <point x="114.0" y="-195"/>
      <point x="185.0" y="-163"/>
      <point x="213.0" y="-31" type="curve" smooth="yes"/>
      <point x="338.0" y="557" type="line" smooth="yes"/>
      <point x="352.8641975308642" y="625.0"/>
      <point x="381.5308641975309" y="653.0"/>
      <point x="424.0" y="653" type="curve" smooth="yes"/>
      <point x="443.0" y="653.0"/>
      <point x="461.0" y="649.0"/>
      <point x="474.0" y="641" type="curve"/>
      <point x="505.0" y="712" type="line"/>
      <point x="486.0" y="720.0"/>
      <point x="460.0" y="730.0"/>
      <point x="424.0" y="730" type="curve" smooth="yes"/>
      <point x="336.43975903614455" y="730.0"/>
      <point x="278.7530120481928" y="681.0"/>
      <point x="253.0" y="564" type="curve" smooth="yes"/>
      <point x="131.0" y="-11" type="line" smooth="yes"/>
      <point x="113.0" y="-96"/>
      <point x="85.0" y="-115"/>
      <point x="49.0" y="-115" type="curve" smooth="yes"/>
      <point x="35.0" y="-115"/>
      <point x="22.0" y="-111"/>
      <point x="8.0" y="-103" type="curve"/>
    </contour>
    <contour>
      <point x="147" y="444" type="line"/>
      <point x="431" y="444" type="line"/>
      <point x="446" y="514" type="line"/>
      <point x="162" y="514" type="line"/>
    </contour>
  </outline>
</glyph>
<glyph name="Nhookleft" format="2">
  <advance width="594"/>
  <unicode hex="019D"/>
  <outline>
    <contour>
      <point x="-132" y="-175" type="line"/>
      <point x="-114" y="-186"/>
      <point x="-88" y="-195"/>
      <point x="-59" y="-195" type="curve" smooth="yes"/>
      <point x="21" y="-195"/>
      <point x="74" y="-155"/>
      <point x="100" y="-34" type="curve" smooth="yes"/>
      <point x="253" y="690" type="line"/>
      <point x="169" y="690" type="line"/>
      <point x="15" y="-32" type="line" smooth="yes"/>
      <point x="1" y="-97"/>
      <point x="-26" y="-120"/>
      <point x="-62" y="-120" type="curve" smooth="yes"/>
      <point x="-77" y="-120"/>
      <point x="-94" y="-115"/>
      <point x="-106" y="-107" type="curve"/>
    </contour>
    <contour>
      <point x="199" y="690" type="line"/>
      <point x="351" y="0" type="line"/>
      <point x="431" y="0" type="line"/>
      <point x="280" y="690" type="line"/>
    </contour>
    <contour>
      <point x="373" y="0" type="line"/>
      <point x="457" y="0" type="line"/>
      <point x="604" y="690" type="line"/>
      <point x="520" y="690" type="line"/>
    </contour>
  </outline>
</glyph>
<glyph name="oogonek" format="2">
	<advance width="471"/>
	<unicode hex="01EB"/>
	<outline>
		<contour>
			<point x="276" y="-172" type="curve"/>
			<point x="256" y="-126" type="line"/>
			<point x="242" y="-135"/>
			<point x="225" y="-140"/>
			<point x="213" y="-140" type="curve" smooth="yes"/>
			<point x="195" y="-140"/>
			<point x="186" y="-126"/>
			<point x="186" y="-111" type="curve" smooth="yes"/>
			<point x="186" y="-65"/>
			<point x="252" y="-16"/>
			<point x="311" y="45" type="curve" smooth="yes"/>
			<point x="380" y="116"/>
			<point x="432" y="227"/>
			<point x="432" y="350" type="curve" smooth="yes"/>
			<point x="432" y="455"/>
			<point x="373" y="525"/>
			<point x="283" y="525" type="curve" smooth="yes"/>
			<point x="138" y="525"/>
			<point x="31" y="357"/>
			<point x="31" y="177" type="curve"/>
			<point x="31" y="61"/>
			<point x="89" y="-9"/>
			<point x="179" y="-10" type="curve" smooth="yes"/>
			<point x="185" y="-10"/>
			<point x="190" y="-10"/>
			<point x="196" y="-9" type="curve"/>
			<point x="160" y="-33"/>
			<point x="128" y="-72"/>
			<point x="128" y="-121" type="curve"/>
			<point x="128" y="-160"/>
			<point x="152" y="-195"/>
			<point x="204" y="-195" type="curve"/>
			<point x="230" y="-195"/>
			<point x="254" y="-187"/>
		</contour>
		<contour>
			<point x="115" y="184" type="curve" smooth="yes"/>
			<point x="115" y="304"/>
			<point x="188" y="449"/>
			<point x="275" y="449" type="curve"/>
			<point x="322" y="449"/>
			<point x="346" y="408"/>
			<point x="346" y="337" type="curve" smooth="yes"/>
			<point x="346" y="204"/>
			<point x="271" y="66"/>
			<point x="185" y="66" type="curve" smooth="yes"/>
			<point x="140" y="66"/>
			<point x="115" y="106"/>
		</contour>
	</outline>
</glyph>
<glyph name="dotlessj" format="2">
	<advance width="231"/>
	<unicode hex="0237"/>
	<anchor x="165" y="515" name="top"/>
	<outline>
		<contour>
			<point x="-143" y="-175" type="line"/>
			<point x="-125" y="-186"/>
			<point x="-99" y="-195"/>
			<point x="-70" y="-195" type="curve"/>
			<point x="10" y="-195"/>
			<point x="70" y="-143"/>
			<point x="93" y="-34" type="curve" smooth="yes"/>
			<point x="209" y="515" type="line"/>
			<point x="121" y="515" type="line"/>
			<point x="5" y="-32" type="line" smooth="yes"/>
			<point x="-9" y="-97"/>
			<point x="-36" y="-120"/>
			<point x="-72" y="-120" type="curve"/>
			<point x="-88" y="-120"/>
			<point x="-104" y="-115"/>
			<point x="-117" y="-107" type="curve"/>
		</contour>
	</outline>
</glyph>
<glyph name="ipa:schwa" format="1">
  <advance width="466.6867031827445"/>
  <unicode hex="0259"/>
  <outline>
    <contour>
      <point x="29" y="172" type="curve" smooth="yes"/>
      <point x="29" y="75"/>
      <point x="82" y="-10"/>
      <point x="182" y="-10" type="curve" smooth="yes"/>
      <point x="336" y="-10"/>
      <point x="423" y="147"/>
      <point x="423" y="324" type="curve" smooth="yes"/>
      <point x="423" y="460"/>
      <point x="357" y="524"/>
      <point x="257" y="524" type="curve" smooth="yes"/>
      <point x="203" y="524"/>
      <point x="155" y="505"/>
      <point x="107" y="472" type="curve"/>
      <point x="130" y="401" type="line"/>
      <point x="166" y="428"/>
      <point x="207" y="446"/>
      <point x="244" y="446" type="curve" smooth="yes"/>
      <point x="309" y="446"/>
      <point x="341" y="409"/>
      <point x="341" y="321" type="curve" smooth="yes"/>
      <point x="341" y="183"/>
      <point x="290" y="65"/>
      <point x="191" y="65" type="curve" smooth="yes"/>
      <point x="132" y="65"/>
      <point x="109" y="115"/>
      <point x="109" y="177" type="curve" smooth="yes"/>
      <point x="109" y="210"/>
      <point x="121" y="237"/>
      <point x="123" y="244" type="curve"/>
      <point x="95" y="215" type="line"/>
      <point x="347" y="215" type="line"/>
      <point x="363" y="279" type="line"/>
      <point x="46" y="279" type="line"/>
      <point x="40" y="266"/>
      <point x="29" y="226"/>
    </contour>
  </outline>
</glyph>
<glyph name="circumflex" format="1">
  <advance width="500"/>
  <unicode hex="02C6"/>
  <outline>
    <contour>
      <point x="189" y="589" type="line"/>
      <point x="264" y="589" type="line"/>
      <point x="389" y="739" type="line"/>
      <point x="301" y="739" type="line"/>
    </contour>
    <contour>
      <point x="308" y="739" type="line"/>
      <point x="371" y="589" type="line"/>
      <point x="440" y="589" type="line"/>
      <point x="390" y="739" type="line"/>
    </contour>
    <contour>
      <point x="299" y="514" type="move" name="_top"/>
    </contour>
  </outline>
</glyph>
<glyph name="caron" format="2">
  <advance width="500"/>
  <unicode hex="02C7"/>
  <anchor x="299" y="514" name="_top"/>
  <outline>
    <contour>
      <point x="221" y="739" type="line"/>
      <point x="271" y="589" type="line"/>
      <point x="353" y="589" type="line"/>
      <point x="290" y="739" type="line"/>
    </contour>
    <contour>
      <point x="273" y="589" type="line"/>
      <point x="361" y="589" type="line"/>
      <point x="473" y="739" type="line"/>
      <point x="398" y="739" type="line"/>
    </contour>
  </outline>
</glyph>
<glyph name="breve" format="2">
	<advance width="500"/>
	<unicode hex="02D8"/>
	<outline>
		<contour>
			<point x="223" y="694" type="curve" smooth="yes"/>
			<point x="223" y="643"/>
			<point x="253" y="593"/>
			<point x="322" y="593" type="curve" smooth="yes"/>
			<point x="392" y="593"/>
			<point x="447" y="640"/>
			<point x="462" y="736" type="curve"/>
			<point x="405" y="736" type="line"/>
			<point x="392" y="680"/>
			<point x="366" y="655"/>
			<point x="331" y="655" type="curve" smooth="yes"/>
			<point x="299" y="655"/>
			<point x="282" y="675"/>
			<point x="282" y="704" type="curve" smooth="yes"/>
			<point x="282" y="721"/>
			<point x="284" y="728"/>
			<point x="286" y="736" type="curve"/>
			<point x="230" y="736" type="line"/>
			<point x="228" y="728"/>
			<point x="223" y="713"/>
		</contour>
	</outline>
</glyph>
<glyph name="dotaccent" format="2">
  <advance width="500"/>
  <unicode hex="02D9"/>
  <anchor x="299" y="514" name="_top"/>
  <outline>
    <contour>
      <point x="283" y="668" type="curve" smooth="yes"/>
      <point x="283" y="645"/>
      <point x="298" y="627"/>
      <point x="325" y="627" type="curve" smooth="yes"/>
      <point x="354" y="627"/>
      <point x="384" y="651"/>
      <point x="384" y="690" type="curve" smooth="yes"/>
      <point x="384" y="714"/>
      <point x="369" y="732"/>
      <point x="343" y="732" type="curve" smooth="yes"/>
      <point x="312" y="732"/>
      <point x="283" y="706"/>
    </contour>
  </outline>
</glyph>
<glyph name="ring" format="2">
  <advance width="500"/>
  <unicode hex="02DA"/>
  <anchor x="299" y="514" name="_top"/>
  <outline>
    <contour>
      <point x="240" y="673" type="curve" smooth="yes"/>
      <point x="240" y="627"/>
      <point x="269" y="586"/>
      <point x="320" y="586" type="curve" smooth="yes"/>
      <point x="383" y="586"/>
      <point x="436" y="641"/>
      <point x="436" y="717" type="curve" smooth="yes"/>
      <point x="436" y="765"/>
      <point x="407" y="804"/>
      <point x="355" y="804" type="curve" smooth="yes"/>
      <point x="292" y="804"/>
      <point x="240" y="751"/>
    </contour>
    <contour>
      <point x="292" y="677" type="curve" smooth="yes"/>
      <point x="292" y="721"/>
      <point x="318" y="755"/>
      <point x="350" y="755" type="curve" smooth="yes"/>
      <point x="371" y="755"/>
      <point x="384" y="739"/>
      <point x="384" y="713" type="curve" smooth="yes"/>
      <point x="384" y="670"/>
      <point x="357" y="635"/>
      <point x="325" y="635" type="curve" smooth="yes"/>
      <point x="304" y="635"/>
      <point x="292" y="650"/>
    </contour>
  </outline>
</glyph>
<glyph name="tilde" format="2">
	<advance width="500"/>
	<unicode hex="02DC"/>
	<anchor x="299" y="514" name="_top"/>
	<outline>
		<contour>
			<point x="195" y="608" type="curve"/>
			<point x="246" y="608" type="line"/>
			<point x="259" y="648"/>
			<point x="269" y="657"/>
			<point x="283" y="657" type="curve" smooth="yes"/>
			<point x="309" y="657"/>
			<point x="329" y="602"/>
			<point x="375" y="602" type="curve"/>
			<point x="421" y="602"/>
			<point x="450" y="647"/>
			<point x="466" y="723" type="curve"/>
			<point x="415" y="723" type="line"/>
			<point x="403" y="683"/>
			<point x="392" y="674"/>
			<point x="378" y="674" type="curve" smooth="yes"/>
			<point x="353" y="674"/>
			<point x="332" y="729"/>
			<point x="286" y="729" type="curve"/>
			<point x="240" y="729"/>
			<point x="212" y="684"/>
		</contour>
	</outline>
</glyph>
<glyph name="hungarumlaut" format="2">
	<advance width="500"/>
	<unicode hex="02DD"/>
	<outline>
		<contour>
			<point x="214" y="589" type="line"/>
			<point x="278" y="589" type="line"/>
			<point x="381" y="739" type="line"/>
			<point x="292" y="739" type="line"/>
		</contour>
		<contour>
			<point x="353" y="589" type="line"/>
			<point x="416" y="589" type="line"/>
			<point x="528" y="739" type="line"/>
			<point x="439" y="739" type="line"/>
		</contour>
	</outline>
</glyph>
<glyph name="acutecomb" format="2">
	<advance width="0"/>
	<unicode hex="0301"/>
	<anchor x="55" y="515" name="_top"/>
	<anchor x="98" y="720" name="top"/>
	<outline>
		<contour>
			<point x="19" y="589" type="line"/>
			<point x="95" y="589" type="line"/>
			<point x="224" y="739" type="line"/>
			<point x="118" y="739" type="line"/>
		</contour>
	</outline>
</glyph>
<glyph name="circumflexcomb" format="2">
	<advance width="0"/>
	<unicode hex="0302"/>
	<anchor x="56" y="515" name="_top"/>
	<anchor x="98" y="718" name="top"/>
	<outline>
		<contour>
			<point x="-55" y="589" type="line"/>
			<point x="20" y="589" type="line"/>
			<point x="145" y="739" type="line"/>
			<point x="57" y="739" type="line"/>
		</contour>
		<contour>
			<point x="64" y="739" type="line"/>
			<point x="127" y="589" type="line"/>
			<point x="196" y="589" type="line"/>
			<point x="146" y="739" type="line"/>
		</contour>
	</outline>
</glyph>
<glyph name="dieresiscomb" format="2">
	<advance width="0"/>
	<unicode hex="0308"/>
	<anchor x="57" y="515" name="_top"/>
	<anchor x="98" y="720" name="top"/>
	<outline>
		<contour>
			<point x="-44" y="669" type="curve" smooth="yes"/>
			<point x="-44" y="646"/>
			<point x="-29" y="628"/>
			<point x="-2" y="628" type="curve" smooth="yes"/>
			<point x="27" y="628"/>
			<point x="57" y="652"/>
			<point x="57" y="691" type="curve" smooth="yes"/>
			<point x="57" y="715"/>
			<point x="42" y="733"/>
			<point x="16" y="733" type="curve" smooth="yes"/>
			<point x="-15" y="733"/>
			<point x="-44" y="707"/>
		</contour>
		<contour>
			<point x="124" y="669" type="curve" smooth="yes"/>
			<point x="124" y="646"/>
			<point x="139" y="628"/>
			<point x="166" y="628" type="curve" smooth="yes"/>
			<point x="195" y="628"/>
			<point x="225" y="652"/>
			<point x="225" y="691" type="curve" smooth="yes"/>
			<point x="225" y="715"/>
			<point x="210" y="733"/>
			<point x="184" y="733" type="curve" smooth="yes"/>
			<point x="153" y="733"/>
			<point x="124" y="707"/>
		</contour>
	</outline>
</glyph>
<glyph name="hookabovecomb" format="2">
	<advance width="0"/>
	<unicode hex="0309"/>
	<anchor x="98" y="720" name="top"/>
	<anchor x="54" y="515" name="_top"/>
	<outline>
		<contour>
			<point x="33" y="585" type="line"/>
			<point x="77" y="585" type="line"/>
			<point x="78" y="651" type="line"/>
			<point x="108" y="657"/>
			<point x="145" y="680"/>
			<point x="145" y="708" type="curve" smooth="yes"/>
			<point x="145" y="763"/>
			<point x="107" y="795"/>
			<point x="57" y="795" type="curve" smooth="yes"/>
			<point x="28" y="795" type="line"/>
			<point x="28" y="748" type="line"/>
			<point x="84" y="748"/>
			<point x="83" y="733"/>
			<point x="83" y="712" type="curve" smooth="yes"/>
			<point x="83" y="700"/>
			<point x="74" y="689"/>
			<point x="51" y="686" type="curve" smooth="yes"/>
			<point x="33" y="684" type="line"/>
		</contour>
	</outline>
</glyph>
<glyph name="hungarumlautcomb" format="2">
	<advance width="0"/>
	<unicode hex="030B"/>
	<anchor x="55" y="515" name="_top"/>
	<anchor x="98" y="720" name="top"/>
	<outline>
		<contour>
			<point x="-40" y="589" type="line"/>
			<point x="24" y="589" type="line"/>
			<point x="127" y="739" type="line"/>
			<point x="38" y="739" type="line"/>
		</contour>
		<contour>
			<point x="99" y="589" type="line"/>
			<point x="162" y="589" type="line"/>
			<point x="274" y="739" type="line"/>
			<point x="185" y="739" type="line"/>
		</contour>
	</outline>
</glyph>
<glyph name="commaturnedabovecomb" format="2">
	<advance width="0"/>
	<unicode hex="0312"/>
	<anchor x="55" y="515" name="_top"/>
	<outline>
		<contour>
			<point x="19" y="589" type="line"/>
			<point x="95" y="589" type="line"/>
			<point x="204" y="739" type="line"/>
			<point x="138" y="739" type="line"/>
		</contour>
	</outline>
</glyph>
<glyph name="ogonekcomb" format="2">
	<advance width="0"/>
	<unicode hex="0328"/>
	<anchor x="-14" y="0" name="_ogonek"/>
	<outline>
		<contour>
			<point x="-169" y="-121" type="curve" smooth="yes"/>
			<point x="-169" y="-159"/>
			<point x="-144" y="-195"/>
			<point x="-93" y="-195" type="curve" smooth="yes"/>
			<point x="-66" y="-195"/>
			<point x="-43" y="-187"/>
			<point x="-21" y="-172" type="curve"/>
			<point x="-41" y="-126" type="line"/>
			<point x="-55" y="-135"/>
			<point x="-72" y="-140"/>
			<point x="-84" y="-140" type="curve" smooth="yes"/>
			<point x="-102" y="-140"/>
			<point x="-111" y="-126"/>
			<point x="-111" y="-111" type="curve" smooth="yes"/>
			<point x="-111" y="-74"/>
			<point x="-77" y="-36"/>
			<point x="-14" y="0" type="curve"/>
			<point x="-90" y="0" type="line"/>
			<point x="-131" y="-23"/>
			<point x="-169" y="-64"/>
		</contour>
	</outline>
</glyph>
<glyph name="pi" format="1">
  <advance width="511"/>
  <unicode hex="03C0"/>
  <outline>
    <contour>
      <point x="34" y="0" type="line"/>
      <point x="122" y="0" type="line"/>
      <point x="231" y="515" type="line"/>
      <point x="143" y="515" type="line"/>
    </contour>
    <contour>
      <point x="69" y="440" type="line"/>
      <point x="506" y="440" type="line"/>
      <point x="521" y="515" type="line"/>
      <point x="84" y="515" type="line"/>
    </contour>
    <contour>
      <point x="288" y="101" type="line" smooth="yes"/>
      <point x="275.5" y="34.33333333333333"/>
      <point x="294.7894736842105" y="-10.0"/>
      <point x="354" y="-10" type="curve"/>
      <point x="369" y="-10"/>
      <point x="385" y="-6"/>
      <point x="398" y="0" type="curve"/>
      <point x="413" y="70" type="line"/>
      <point x="407" y="68"/>
      <point x="399" y="66"/>
      <point x="393" y="66" type="curve" smooth="yes"/>
      <point x="377.0" y="66.0"/>
      <point x="371" y="76"/>
      <point x="378" y="108" type="curve" smooth="yes"/>
      <point x="461" y="510" type="line"/>
      <point x="373" y="510" type="line"/>
    </contour>
  </outline>
</glyph>
<glyph name="emdash" format="2">
  <advance width="760"/>
  <unicode hex="2014"/>
  <outline>
    <contour>
      <point x="41" y="240" type="line"/>
      <point x="701" y="240" type="line"/>
      <point x="715" y="312" type="line"/>
      <point x="56" y="312" type="line"/>
    </contour>
  </outline>
</glyph>
<glyph name="quoteright" format="1">
  <advance width="198.0912966391577"/>
  <unicode hex="2019"/>
  <outline>
    <contour>
      <point x="87" y="471" type="line"/>
      <point x="141" y="471" type="line"/>
      <point x="210" y="597" type="line" smooth="yes"/>
      <point x="227" y="628"/>
      <point x="240" y="651"/>
      <point x="240" y="675" type="curve" smooth="yes"/>
      <point x="240" y="708"/>
      <point x="221" y="729"/>
      <point x="190" y="729" type="curve" smooth="yes"/>
      <point x="154" y="729"/>
      <point x="122" y="700"/>
      <point x="122" y="661" type="curve" smooth="yes"/>
      <point x="122" y="639"/>
      <point x="137" y="623"/>
      <point x="151" y="615" type="curve"/>
    </contour>
  </outline>
</glyph>
<glyph name="dagger" format="2">
	<advance width="376"/>
	<unicode hex="2020"/>
	<outline>
		<contour>
			<point x="59" y="444" type="line"/>
			<point x="385" y="444" type="line"/>
			<point x="400" y="515" type="line"/>
			<point x="74" y="515" type="line"/>
		</contour>
		<contour>
			<point x="47" y="-185" type="line"/>
			<point x="129" y="-185" type="line"/>
			<point x="321" y="720" type="line"/>
			<point x="239" y="720" type="line"/>
		</contour>
	</outline>
</glyph>
<glyph name="daggerdbl" format="2">
	<advance width="376"/>
	<unicode hex="2021"/>
	<outline>
		<contour>
			<point x="-31" y="21" type="line"/>
			<point x="295" y="21" type="line"/>
			<point x="311" y="92" type="line"/>
			<point x="-15" y="92" type="line"/>
		</contour>
		<contour>
			<point x="59" y="444" type="line"/>
			<point x="385" y="444" type="line"/>
			<point x="400" y="515" type="line"/>
			<point x="74" y="515" type="line"/>
		</contour>
		<contour>
			<point x="47" y="-185" type="line"/>
			<point x="129" y="-185" type="line"/>
			<point x="321" y="720" type="line"/>
			<point x="239" y="720" type="line"/>
		</contour>
	</outline>
</glyph>
<glyph name="guilsinglleft" format="2">
	<advance width="260"/>
	<unicode hex="2039"/>
	<outline>
		<contour>
			<point x="30" y="254" type="line"/>
			<point x="100" y="81" type="line"/>
			<point x="188" y="81" type="line"/>
			<point x="105" y="286" type="line"/>
			<point x="38" y="294" type="line"/>
		</contour>
		<contour>
			<point x="30" y="254" type="line"/>
			<point x="109" y="262" type="line"/>
			<point x="270" y="457" type="line"/>
			<point x="170" y="457" type="line"/>
			<point x="38" y="294" type="line"/>
		</contour>
	</outline>
</glyph>
<glyph name="guilsinglright" format="2">
	<advance width="260"/>
	<unicode hex="203A"/>
	<outline>
		<contour>
			<point x="-16" y="79" type="line"/>
			<point x="85" y="79" type="line"/>
			<point x="216" y="243" type="line"/>
			<point x="224" y="282" type="line"/>
			<point x="146" y="275" type="line"/>
		</contour>
		<contour>
			<point x="66" y="456" type="line"/>
			<point x="150" y="251" type="line"/>
			<point x="216" y="243" type="line"/>
			<point x="224" y="282" type="line"/>
			<point x="153" y="456" type="line"/>
		</contour>
	</outline>
</glyph>
<glyph name="fraction" format="2">
	<advance width="449"/>
	<unicode hex="2044"/>
	<outline>
		<contour>
			<point x="-62" y="0" type="line"/>
			<point x="37" y="0" type="line"/>
			<point x="538" y="690" type="line"/>
			<point x="439" y="690" type="line"/>
		</contour>
	</outline>
</glyph>
<glyph name="won" format="2">
	<advance width="740"/>
	<unicode hex="20A9"/>
	<outline>
		<component base="W"/>
		<contour>
			<point x="28" y="313" type="line"/>
			<point x="738" y="313" type="line"/>
			<point x="752" y="380" type="line"/>
			<point x="42" y="380" type="line"/>
		</contour>
	</outline>
</glyph>
<glyph name="Euro" format="2">
	<advance width="500"/>
	<unicode hex="20AC"/>
	<outline>
		<contour>
			<point x="21.5" y="223" type="line"/>
			<point x="331.5" y="223" type="line"/>
			<point x="347.5" y="295" type="line"/>
			<point x="37.5" y="295" type="line"/>
		</contour>
		<contour>
			<point x="58.5" y="395" type="line"/>
			<point x="368.5" y="395" type="line"/>
			<point x="383.5" y="467" type="line"/>
			<point x="73.5" y="467" type="line"/>
		</contour>
		<contour>
			<point x="75.5" y="236" type="curve" smooth="yes"/>
			<point x="75.5" y="81"/>
			<point x="146.5" y="-10"/>
			<point x="257.5" y="-10" type="curve"/>
			<point x="327.5" y="-10"/>
			<point x="391.95631" y="28"/>
			<point x="450.5" y="89" type="curve"/>
			<point x="394.5" y="148" type="line"/>
			<point x="356.01515" y="103"/>
			<point x="310.79545" y="77"/>
			<point x="267.5" y="77" type="curve" smooth="yes"/>
			<point x="203.13551" y="77"/>
			<point x="170.5" y="136"/>
			<point x="170.5" y="251" type="curve" smooth="yes"/>
			<point x="170.5" y="437"/>
			<point x="283.39177" y="613"/>
			<point x="391.5" y="613" type="curve" smooth="yes"/>
			<point x="426.46703" y="613"/>
			<point x="452.5" y="595"/>
			<point x="477.5" y="552" type="curve"/>
			<point x="551.5" y="612" type="line"/>
			<point x="510.87255" y="672"/>
			<point x="463.47386" y="700"/>
			<point x="403.5" y="700" type="curve" smooth="yes"/>
			<point x="222.03254" y="700"/>
			<point x="75.5" y="486"/>
		</contour>
	</outline>
</glyph>
<glyph name="peso" format="2">
	<advance width="529"/>
	<unicode hex="20B1"/>
	<outline>
		<component base="P"/>
		<contour>
			<point x="53" y="485" type="line"/>
			<point x="561" y="485" type="line"/>
			<point x="575" y="552" type="line"/>
			<point x="67" y="552" type="line"/>
		</contour>
		<contour>
			<point x="33" y="378" type="line"/>
			<point x="541" y="378" type="line"/>
			<point x="555" y="445" type="line"/>
			<point x="47" y="445" type="line"/>
		</contour>
	</outline>
</glyph>
<glyph name="cedi" format="2">
	<advance width="516"/>
	<unicode hex="20B5"/>
	<outline>
		<component base="C"/>
		<contour>
			<point x="149" y="-134" type="line"/>
			<point x="232" y="-134" type="line"/>
			<point x="431" y="801" type="line"/>
			<point x="348" y="801" type="line"/>
		</contour>
	</outline>
</glyph>
<glyph name="numero" format="2">
  <advance width="912"/>
  <unicode hex="2116"/>
  <outline>
    <contour>
      <point x="573" y="117" type="line"/>
      <point x="821" y="117" type="line"/>
      <point x="836" y="189" type="line"/>
      <point x="588" y="189" type="line"/>
    </contour>
    <contour>
      <point x="703" y="700"/>
      <point x="631" y="567"/>
      <point x="631" y="430" type="curve"/>
      <point x="631" y="328"/>
      <point x="678" y="280"/>
      <point x="744" y="280" type="curve"/>
      <point x="846" y="280"/>
      <point x="916" y="418"/>
      <point x="916" y="548" type="curve"/>
      <point x="916" y="652"/>
      <point x="871" y="700"/>
      <point x="807" y="700" type="curve"/>
    </contour>
    <contour>
      <point x="702" y="434" type="curve"/>
      <point x="702" y="542"/>
      <point x="747" y="632"/>
      <point x="800" y="632" type="curve" smooth="yes"/>
      <point x="827" y="632"/>
      <point x="846" y="610"/>
      <point x="846" y="547" type="curve"/>
      <point x="846" y="442"/>
      <point x="802" y="348"/>
      <point x="749" y="348" type="curve" smooth="yes"/>
      <point x="722" y="348"/>
      <point x="702" y="371"/>
    </contour>
    <contour>
      <point x="17" y="0" type="line"/>
      <point x="101" y="0" type="line"/>
      <point x="248" y="690" type="line"/>
      <point x="164" y="690" type="line"/>
    </contour>
    <contour>
      <point x="194" y="690" type="line"/>
      <point x="346" y="0" type="line"/>
      <point x="426" y="0" type="line"/>
      <point x="275" y="690" type="line"/>
    </contour>
    <contour>
      <point x="368" y="0" type="line"/>
      <point x="452" y="0" type="line"/>
      <point x="599" y="690" type="line"/>
      <point x="515" y="690" type="line"/>
    </contour>
  </outline>
</glyph>
<glyph name="trademark" format="2">
	<advance width="774"/>
	<unicode hex="2122"/>
	<outline>
		<contour>
			<point x="108" y="627" type="line"/>
			<point x="368" y="627" type="line"/>
			<point x="382" y="690" type="line"/>
			<point x="122" y="690" type="line"/>
		</contour>
		<contour>
			<point x="132" y="290" type="line"/>
			<point x="201" y="290" type="line"/>
			<point x="286" y="690" type="line"/>
			<point x="217" y="690" type="line"/>
		</contour>
		<contour>
			<point x="359" y="290" type="line"/>
			<point x="423" y="290" type="line"/>
			<point x="508" y="690" type="line"/>
			<point x="444" y="690" type="line"/>
		</contour>
		<contour>
			<point x="487" y="690" type="line"/>
			<point x="513" y="369" type="line"/>
			<point x="556" y="369" type="line"/>
			<point x="572" y="426" type="line"/>
			<point x="548" y="690" type="line"/>
		</contour>
		<contour>
			<point x="531" y="369" type="line"/>
			<point x="574" y="369" type="line"/>
			<point x="738" y="690" type="line"/>
			<point x="670" y="690" type="line"/>
			<point x="540" y="426" type="line"/>
		</contour>
		<contour>
			<point x="632" y="290" type="line"/>
			<point x="696" y="290" type="line"/>
			<point x="781" y="690" type="line"/>
			<point x="717" y="690" type="line"/>
		</contour>
	</outline>
</glyph>
<glyph name="partialdiff" format="2">
	<advance width="534"/>
	<unicode hex="2202"/>
	<outline>
		<contour>
			<point x="28" y="158" type="curve" smooth="yes"/>
			<point x="28" y="56"/>
			<point x="80" y="-10"/>
			<point x="177" y="-10" type="curve"/>
			<point x="334" y="-10"/>
			<point x="485" y="209"/>
			<point x="485" y="479" type="curve"/>
			<point x="490" y="636"/>
			<point x="435" y="730"/>
			<point x="329" y="730" type="curve"/>
			<point x="300" y="730"/>
			<point x="260" y="721"/>
			<point x="233" y="707" type="curve"/>
			<point x="248" y="638" type="line"/>
			<point x="273" y="649"/>
			<point x="292" y="654"/>
			<point x="315" y="654" type="curve"/>
			<point x="375" y="654"/>
			<point x="405" y="610"/>
			<point x="405" y="478" type="curve" smooth="yes"/>
			<point x="405" y="250"/>
			<point x="279" y="66"/>
			<point x="185" y="66" type="curve"/>
			<point x="139" y="66"/>
			<point x="111" y="101"/>
			<point x="111" y="165" type="curve" smooth="yes"/>
			<point x="111" y="287"/>
			<point x="203" y="405"/>
			<point x="292" y="405" type="curve"/>
			<point x="343" y="405"/>
			<point x="382" y="378"/>
			<point x="398" y="326" type="curve"/>
			<point x="422" y="389" type="line"/>
			<point x="401" y="439"/>
			<point x="356" y="479"/>
			<point x="286" y="479" type="curve"/>
			<point x="158" y="479"/>
			<point x="28" y="332"/>
		</contour>
	</outline>
</glyph>
<glyph name="product" format="2">
  <advance width="579"/>
  <unicode hex="220F"/>
  <outline>
    <contour>
      <point x="15" y="-185" type="line"/>
      <point x="106" y="-185" type="line"/>
      <point x="291" y="690" type="line"/>
      <point x="201" y="690" type="line"/>
    </contour>
    <contour>
      <point x="116" y="607" type="line"/>
      <point x="598" y="607" type="line"/>
      <point x="619" y="690" type="line"/>
      <point x="137" y="690" type="line"/>
    </contour>
    <contour>
      <point x="279" y="-185" type="line"/>
      <point x="369" y="-185" type="line"/>
      <point x="555" y="690" type="line"/>
      <point x="464" y="690" type="line"/>
    </contour>
  </outline>
</glyph>
<glyph name="minus" format="2">
	<advance width="500"/>
	<unicode hex="2212"/>
	<outline>
		<contour>
			<point x="49.5" y="251" type="line"/>
			<point x="436.5" y="251" type="line"/>
			<point x="453.5" y="329" type="line"/>
			<point x="66.5" y="329" type="line"/>
		</contour>
	</outline>
</glyph>
<glyph name="radical" format="2">
	<advance width="580"/>
	<unicode hex="221A"/>
	<outline>
		<contour>
			<point x="14" y="254" type="line"/>
			<point x="150" y="254" type="line"/>
			<point x="170" y="336" type="line"/>
			<point x="31" y="336" type="line"/>
		</contour>
		<contour>
			<point x="102" y="336" type="line"/>
			<point x="154" y="-185" type="line"/>
			<point x="208" y="-185" type="line"/>
			<point x="228" y="-98" type="line"/>
			<point x="188" y="336" type="line"/>
		</contour>
		<contour>
			<point x="174" y="-185" type="line"/>
			<point x="225" y="-185" type="line"/>
			<point x="687" y="690" type="line"/>
			<point x="591" y="690" type="line"/>
			<point x="184" y="-98" type="line"/>
		</contour>
	</outline>
</glyph>
<glyph name="infinity" format="2">
	<advance width="565"/>
	<unicode hex="221E"/>
	<outline>
		<contour>
			<point x="35" y="247" type="curve" smooth="yes"/>
			<point x="35" y="157"/>
			<point x="74" y="104"/>
			<point x="136" y="104" type="curve" smooth="yes"/>
			<point x="191" y="104"/>
			<point x="250" y="149"/>
			<point x="312" y="280" type="curve" smooth="yes"/>
			<point x="352" y="366"/>
			<point x="389" y="400"/>
			<point x="419" y="400" type="curve" smooth="yes"/>
			<point x="444" y="400"/>
			<point x="461" y="372"/>
			<point x="461" y="322" type="curve" smooth="yes"/>
			<point x="461" y="242"/>
			<point x="417" y="180"/>
			<point x="377" y="180" type="curve" smooth="yes"/>
			<point x="338" y="180"/>
			<point x="316" y="226"/>
			<point x="318" y="295" type="curve" smooth="yes"/>
			<point x="318" y="298"/>
			<point x="318" y="301"/>
			<point x="318" y="304" type="curve"/>
			<point x="273" y="241" type="line"/>
			<point x="270" y="176"/>
			<point x="300" y="104"/>
			<point x="371" y="104" type="curve" smooth="yes"/>
			<point x="456" y="104"/>
			<point x="534" y="208"/>
			<point x="534" y="329" type="curve" smooth="yes"/>
			<point x="534" y="419"/>
			<point x="496" y="476"/>
			<point x="433" y="476" type="curve"/>
			<point x="380" y="476"/>
			<point x="317" y="429"/>
			<point x="255" y="300" type="curve" smooth="yes"/>
			<point x="215" y="213"/>
			<point x="179" y="180"/>
			<point x="148" y="180" type="curve" smooth="yes"/>
			<point x="124" y="180"/>
			<point x="108" y="208"/>
			<point x="108" y="255" type="curve" smooth="yes"/>
			<point x="108" y="333"/>
			<point x="151" y="400"/>
			<point x="194" y="400" type="curve" smooth="yes"/>
			<point x="231" y="400"/>
			<point x="249" y="354"/>
			<point x="248" y="287" type="curve" smooth="yes"/>
			<point x="248" y="284"/>
			<point x="248" y="280"/>
			<point x="248" y="276" type="curve"/>
			<point x="294" y="340" type="line"/>
			<point x="299" y="414"/>
			<point x="266" y="476"/>
			<point x="199" y="476" type="curve" smooth="yes"/>
			<point x="115" y="476"/>
			<point x="35" y="373"/>
		</contour>
	</outline>
</glyph>
<glyph name="approxequal" format="2">
	<advance width="500"/>
	<unicode hex="2248"/>
	<outline>
		<contour>
			<point x="20" y="176" type="curve"/>
			<point x="58" y="119" type="line"/>
			<point x="85" y="145"/>
			<point x="115" y="165"/>
			<point x="145" y="165" type="curve" smooth="yes"/>
			<point x="204" y="165"/>
			<point x="229" y="109"/>
			<point x="301" y="109" type="curve"/>
			<point x="347" y="109"/>
			<point x="391" y="136"/>
			<point x="432" y="174" type="curve"/>
			<point x="394" y="231" type="line"/>
			<point x="367" y="206"/>
			<point x="337" y="188"/>
			<point x="306" y="188" type="curve" smooth="yes"/>
			<point x="247" y="188"/>
			<point x="223" y="242"/>
			<point x="150" y="242" type="curve"/>
			<point x="105" y="242"/>
			<point x="61" y="216"/>
		</contour>
		<contour>
			<point x="70" y="404" type="curve"/>
			<point x="107" y="347" type="line"/>
			<point x="134" y="373"/>
			<point x="165" y="390"/>
			<point x="195" y="390" type="curve" smooth="yes"/>
			<point x="254" y="390"/>
			<point x="278" y="336"/>
			<point x="351" y="336" type="curve"/>
			<point x="396" y="336"/>
			<point x="440" y="363"/>
			<point x="481" y="402" type="curve"/>
			<point x="443" y="459" type="line"/>
			<point x="417" y="434"/>
			<point x="386" y="415"/>
			<point x="355" y="415" type="curve" smooth="yes"/>
			<point x="296" y="415"/>
			<point x="272" y="469"/>
			<point x="200" y="469" type="curve"/>
			<point x="154" y="469"/>
			<point x="110" y="443"/>
		</contour>
	</outline>
</glyph>
<glyph name="lessequal" format="1">
  <advance width="500"/>
  <unicode hex="2264"/>
  <outline>
    <contour>
      <point x="16" y="71" type="line"/>
      <point x="370" y="71" type="line"/>
      <point x="387" y="150" type="line"/>
      <point x="387" y="150" type="line"/>
      <point x="33" y="150" type="line"/>
    </contour>
    <contour>
      <point x="70" y="323" type="line"/>
      <point x="390" y="167" type="line"/>
      <point x="407" y="246" type="line"/>
      <point x="141" y="372" type="line"/>
      <point x="87" y="403" type="line"/>
    </contour>
    <contour>
      <point x="70" y="323" type="line"/>
      <point x="134" y="342" type="line"/>
      <point x="454" y="468" type="line"/>
      <point x="474" y="559" type="line"/>
      <point x="87" y="403" type="line"/>
    </contour>
  </outline>
</glyph>
<glyph name="greaterequal" format="2">
  <advance width="500"/>
  <unicode hex="2265"/>
  <outline>
    <contour>
      <point x="40" y="71" type="line"/>
      <point x="393" y="71" type="line"/>
      <point x="410" y="150" type="line"/>
      <point x="57" y="150" type="line"/>
      <point x="57" y="150" type="line"/>
    </contour>
    <contour>
      <point x="60" y="167" type="line"/>
      <point x="447.0" y="323" type="line"/>
      <point x="464.0" y="403" type="line"/>
      <point x="400.0" y="384" type="line"/>
      <point x="80.0" y="258" type="line"/>
    </contour>
    <contour>
      <point x="127" y="480" type="line"/>
      <point x="393" y="354" type="line"/>
      <point x="447" y="323" type="line"/>
      <point x="464" y="403" type="line"/>
      <point x="144" y="559" type="line"/>
    </contour>
  </outline>
</glyph>
<glyph name="rightanglebracket-math" format="2">
	<advance width="339"/>
	<unicode hex="27E9"/>
	<outline>
		<contour>
			<point x="-34" y="-185" type="line"/>
			<point x="29" y="-185" type="line"/>
			<point x="304" y="343" type="line"/>
			<point x="227" y="720" type="line"/>
			<point x="167" y="720" type="line"/>
			<point x="241" y="345" type="line"/>
		</contour>
	</outline>
</glyph>
<glyph name="f_f" format="2">
	<advance width="586"/>
	<unicode hex="FB00"/>
	<outline>
		<contour>
			<point x="35" y="0" type="line"/>
			<point x="123" y="0" type="line"/>
			<point x="241" y="557" type="line" smooth="yes"/>
			<point x="255" y="622"/>
			<point x="283" y="654"/>
			<point x="321" y="654" type="curve" smooth="yes"/>
			<point x="340" y="654"/>
			<point x="361" y="650"/>
			<point x="378" y="639" type="curve"/>
			<point x="408" y="707" type="line"/>
			<point x="385" y="720"/>
			<point x="355" y="730"/>
			<point x="325" y="730" type="curve" smooth="yes"/>
			<point x="237" y="730"/>
			<point x="178" y="673"/>
			<point x="153" y="564" type="curve" smooth="yes"/>
		</contour>
		<contour>
			<point x="51" y="445" type="line"/>
			<point x="335" y="445" type="line"/>
			<point x="352" y="515" type="line"/>
			<point x="68" y="515" type="line"/>
		</contour>
		<contour>
			<point x="319" y="0" type="line"/>
			<point x="407" y="0" type="line"/>
			<point x="525" y="557" type="line" smooth="yes"/>
			<point x="539" y="622"/>
			<point x="567" y="654"/>
			<point x="605" y="654" type="curve" smooth="yes"/>
			<point x="624" y="654"/>
			<point x="645" y="650"/>
			<point x="662" y="639" type="curve"/>
			<point x="692" y="707" type="line"/>
			<point x="669" y="720"/>
			<point x="639" y="730"/>
			<point x="609" y="730" type="curve" smooth="yes"/>
			<point x="521" y="730"/>
			<point x="462" y="673"/>
			<point x="437" y="564" type="curve" smooth="yes"/>
		</contour>
		<contour>
			<point x="335" y="445" type="line"/>
			<point x="619" y="445" type="line"/>
			<point x="636" y="515" type="line"/>
			<point x="352" y="515" type="line"/>
		</contour>
	</outline>
</glyph>
<glyph name="I.alt" format="2">
  <advance width="245"/>
  <anchor x="207" y="690" name="top"/>
  <anchor x="18" y="0" name="ogonek"/>
  <anchor x="63" y="0" name="bottom"/>
  <outline>
    <contour>
      <point x="18" y="0" type="line"/>
      <point x="108" y="0" type="line"/>
      <point x="254" y="690" type="line"/>
      <point x="164" y="690" type="line"/>
    </contour>
  </outline>
</glyph>
<glyph name="J.alt" format="2">
  <advance width="438"/>
  <anchor x="410" y="690" name="top"/>
  <outline>
    <contour>
      <point x="-13" y="67" type="line"/>
      <point x="24" y="19"/>
      <point x="77" y="-10"/>
      <point x="135" y="-10" type="curve" smooth="yes"/>
      <point x="233" y="-10"/>
      <point x="321" y="50"/>
      <point x="355" y="214" type="curve" smooth="yes"/>
      <point x="454" y="690" type="line"/>
      <point x="365" y="690" type="line"/>
      <point x="279" y="269" type="line" smooth="yes"/>
      <point x="246" y="106"/>
      <point x="197" y="75"/>
      <point x="144" y="75" type="curve"/>
      <point x="102" y="75"/>
      <point x="71" y="97"/>
      <point x="44" y="132" type="curve"/>
    </contour>
  </outline>
</glyph>
<glyph name=".notdef" format="2">
	<advance width="500"/>
	<outline>
		<contour>
			<point x="82" y="-185" type="line"/>
			<point x="159" y="-185" type="line"/>
			<point x="159" y="690" type="line"/>
			<point x="82" y="690" type="line"/>
		</contour>
		<contour>
			<point x="110" y="-185" type="line"/>
			<point x="379" y="-185" type="line"/>
			<point x="379" y="-111" type="line"/>
			<point x="110" y="-111" type="line"/>
		</contour>
		<contour>
			<point x="110" y="616" type="line"/>
			<point x="379" y="616" type="line"/>
			<point x="379" y="690" type="line"/>
			<point x="110" y="690" type="line"/>
		</contour>
		<contour>
			<point x="329" y="-185" type="line"/>
			<point x="406" y="-185" type="line"/>
			<point x="406" y="690" type="line"/>
			<point x="329" y="690" type="line"/>
		</contour>
	</outline>
</glyph>
<glyph name="a.alt" format="2">
  <advance width="511"/>
  <anchor x="307" y="514" name="top"/>
  <anchor x="337" y="0" name="ogonek"/>
  <anchor x="201" y="0" name="bottom"/>
  <outline>
    <contour>
      <point x="28" y="176" type="curve" smooth="yes"/>
      <point x="24" y="57"/>
      <point x="80" y="-10"/>
      <point x="156" y="-10" type="curve" smooth="yes"/>
      <point x="217" y="-10"/>
      <point x="274" y="29"/>
      <point x="311" y="101" type="curve"/>
      <point x="305" y="98" type="line"/>
      <point x="296" y="38"/>
      <point x="321" y="-10"/>
      <point x="375" y="-10" type="curve"/>
      <point x="391" y="-10"/>
      <point x="403" y="-6"/>
      <point x="413" y="0" type="curve"/>
      <point x="429" y="67" type="line"/>
      <point x="424" y="65"/>
      <point x="418" y="63"/>
      <point x="410" y="63" type="curve" smooth="yes"/>
      <point x="391" y="63"/>
      <point x="384" y="81"/>
      <point x="396" y="149" type="curve" smooth="yes"/>
      <point x="473" y="514" type="line"/>
      <point x="394" y="514" type="line"/>
      <point x="373" y="452" type="line"/>
      <point x="331" y="251" type="line" smooth="yes"/>
      <point x="306" y="135"/>
      <point x="238" y="68"/>
      <point x="183" y="68" type="curve" smooth="yes"/>
      <point x="142" y="68"/>
      <point x="115" y="106"/>
      <point x="118" y="185" type="curve" smooth="yes"/>
      <point x="123" y="327"/>
      <point x="194" y="451"/>
      <point x="274" y="451" type="curve" smooth="yes"/>
      <point x="312" y="451"/>
      <point x="344" y="431"/>
      <point x="372" y="388" type="curve"/>
      <point x="388" y="463" type="line"/>
      <point x="357" y="504"/>
      <point x="315" y="524"/>
      <point x="271" y="524" type="curve" smooth="yes"/>
      <point x="151" y="524"/>
      <point x="34" y="369"/>
    </contour>
  </outline>
</glyph>
<glyph name="acutecomb.case" format="2">
	<advance width="0"/>
	<anchor x="93" y="690" name="_top"/>
	<anchor x="138" y="895" name="top"/>
	<outline>
		<contour>
			<point x="66" y="750" type="line"/>
			<point x="148" y="750" type="line"/>
			<point x="286" y="885" type="line"/>
			<point x="174" y="885" type="line"/>
		</contour>
	</outline>
</glyph>
<glyph name="aogonek.alt" format="2">
	<advance width="511"/>
	<outline>
		<contour>
			<point x="28" y="176" type="curve" smooth="yes"/>
			<point x="24" y="57"/>
			<point x="80" y="-10"/>
			<point x="156" y="-10" type="curve" smooth="yes"/>
			<point x="217" y="-10"/>
			<point x="274" y="29"/>
			<point x="311" y="101" type="curve"/>
			<point x="305" y="98" type="line"/>
			<point x="296" y="38"/>
			<point x="321" y="-10"/>
			<point x="375" y="-10" type="curve"/>
			<point x="391" y="-10"/>
			<point x="403" y="-6"/>
			<point x="413" y="0" type="curve"/>
			<point x="429" y="67" type="line"/>
			<point x="424" y="65"/>
			<point x="418" y="63"/>
			<point x="410" y="63" type="curve" smooth="yes"/>
			<point x="391" y="63"/>
			<point x="384" y="81"/>
			<point x="396" y="149" type="curve" smooth="yes"/>
			<point x="473" y="514" type="line"/>
			<point x="394" y="514" type="line"/>
			<point x="373" y="452" type="line"/>
			<point x="331" y="251" type="line" smooth="yes"/>
			<point x="306" y="135"/>
			<point x="238" y="68"/>
			<point x="183" y="68" type="curve" smooth="yes"/>
			<point x="142" y="68"/>
			<point x="115" y="106"/>
			<point x="118" y="185" type="curve" smooth="yes"/>
			<point x="123" y="327"/>
			<point x="194" y="451"/>
			<point x="274" y="451" type="curve" smooth="yes"/>
			<point x="312" y="451"/>
			<point x="344" y="431"/>
			<point x="372" y="388" type="curve"/>
			<point x="388" y="463" type="line"/>
			<point x="357" y="504"/>
			<point x="315" y="524"/>
			<point x="271" y="524" type="curve" smooth="yes"/>
			<point x="151" y="524"/>
			<point x="34" y="369"/>
		</contour>
		<contour>
			<point x="258" y="-121" type="curve" smooth="yes"/>
			<point x="258" y="-159"/>
			<point x="283" y="-195"/>
			<point x="334" y="-195" type="curve" smooth="yes"/>
			<point x="361" y="-195"/>
			<point x="384" y="-187"/>
			<point x="406" y="-172" type="curve"/>
			<point x="386" y="-126" type="line"/>
			<point x="372" y="-135"/>
			<point x="355" y="-140"/>
			<point x="343" y="-140" type="curve" smooth="yes"/>
			<point x="325" y="-140"/>
			<point x="316" y="-126"/>
			<point x="316" y="-111" type="curve" smooth="yes"/>
			<point x="316" y="-74"/>
			<point x="350" y="-36"/>
			<point x="413" y="0" type="curve"/>
			<point x="347" y="10" type="line"/>
			<point x="296" y="-23"/>
			<point x="258" y="-64"/>
		</contour>
	</outline>
</glyph>
<glyph name="caron.alt" format="2">
  <advance width="500"/>
  <anchor x="343" y="720" name="_caron.alt"/>
  <outline>
    <contour>
      <point x="269" y="541" type="line"/>
      <point x="339" y="541" type="line"/>
      <point x="431" y="730" type="line"/>
      <point x="344" y="730" type="line"/>
    </contour>
  </outline>
</glyph>
<glyph name="circumflex.cap" format="2">
	<advance width="500"/>
	<anchor x="337" y="690" name="_top"/>
	<outline>
		<contour>
			<point x="212" y="750" type="line"/>
			<point x="289" y="750" type="line"/>
			<point x="427" y="885" type="line"/>
			<point x="324" y="885" type="line"/>
		</contour>
		<contour>
			<point x="334" y="885" type="line"/>
			<point x="413" y="750" type="line"/>
			<point x="487" y="750" type="line"/>
			<point x="426" y="885" type="line"/>
		</contour>
	</outline>
</glyph>
<glyph name="commaaccent.alt" format="2">
  <advance width="500"/>
  <anchor x="300" y="515" name="_top"/>
  <outline>
    <contour>
      <point x="403" y="820" type="line"/>
      <point x="353" y="820" type="line"/>
      <point x="308" y="739" type="line" smooth="yes"/>
      <point x="291" y="708"/>
      <point x="275" y="682"/>
      <point x="275" y="655" type="curve" smooth="yes"/>
      <point x="275" y="624"/>
      <point x="291" y="605"/>
      <point x="321" y="605" type="curve" smooth="yes"/>
      <point x="356" y="605"/>
      <point x="388" y="635"/>
      <point x="388" y="673" type="curve" smooth="yes"/>
      <point x="388" y="696"/>
      <point x="378" y="710"/>
      <point x="359" y="718" type="curve"/>
    </contour>
  </outline>
</glyph>
<glyph name="dotbelow" format="1">
  <advance width="500"/>
  <outline>
    <component base="dotaccent" xOffset="-178" yOffset="-844"/>
    <contour>
      <point x="190" y="0" type="move" name="_bottom"/>
    </contour>
  </outline>
</glyph>
<glyph name="hungarumlaut.cap" format="2">
  <advance width="500"/>
  <anchor x="337" y="690" name="_top"/>
  <outline>
    <contour>
      <point x="236" y="750" type="line"/>
      <point x="300" y="750" type="line"/>
      <point x="409" y="885" type="line"/>
      <point x="319" y="885" type="line"/>
    </contour>
    <contour>
      <point x="382" y="750" type="line"/>
      <point x="446" y="750" type="line"/>
      <point x="563" y="885" type="line"/>
      <point x="474" y="885" type="line"/>
    </contour>
  </outline>
</glyph>
<glyph name="macron.cap" format="2">
	<advance width="500"/>
	<anchor x="337" y="690" name="_top"/>
	<outline>
		<contour>
			<point x="226" y="776" type="line"/>
			<point x="484" y="776" type="line"/>
			<point x="498" y="843" type="line"/>
			<point x="240" y="843" type="line"/>
		</contour>
	</outline>
</glyph>
<glyph name="one.pl" format="2">
	<advance width="360"/>
	<outline>
		<contour>
			<point x="87" y="600" type="line"/>
			<point x="113" y="531" type="line"/>
			<point x="290" y="614" type="line"/>
			<point x="276" y="690" type="line"/>
		</contour>
		<contour>
			<point x="100" y="0" type="line"/>
			<point x="189" y="0" type="line"/>
			<point x="336" y="690" type="line"/>
			<point x="276" y="690" type="line"/>
			<point x="235" y="637" type="line"/>
		</contour>
	</outline>
</glyph>
<glyph name="ring.cap" format="2">
  <advance width="500"/>
  <anchor x="337" y="690" name="_top"/>
  <outline>
    <contour>
      <point x="272" y="825" type="curve" smooth="yes"/>
      <point x="272" y="778"/>
      <point x="304" y="740"/>
      <point x="354" y="740" type="curve" smooth="yes"/>
      <point x="417" y="740"/>
      <point x="467" y="790"/>
      <point x="467" y="859" type="curve" smooth="yes"/>
      <point x="467" y="907"/>
      <point x="435" y="944"/>
      <point x="385" y="944" type="curve" smooth="yes"/>
      <point x="322" y="944"/>
      <point x="272" y="895"/>
    </contour>
    <contour>
      <point x="326" y="829" type="curve" smooth="yes"/>
      <point x="326" y="862"/>
      <point x="347" y="895"/>
      <point x="379" y="895" type="curve" smooth="yes"/>
      <point x="401" y="895"/>
      <point x="413" y="878"/>
      <point x="413" y="855" type="curve" smooth="yes"/>
      <point x="413" y="822"/>
      <point x="392" y="789"/>
      <point x="361" y="789" type="curve" smooth="yes"/>
      <point x="338" y="789"/>
      <point x="326" y="806"/>
    </contour>
  </outline>
</glyph>
<glyph name="seven.lf" format="2">
	<advance width="480"/>
	<outline>
		<contour>
			<point x="60" y="0" type="line"/>
			<point x="164" y="0" type="line"/>
			<point x="487" y="628" type="line"/>
			<point x="430" y="690" type="line"/>
		</contour>
		<contour>
			<point x="112" y="602" type="line"/>
			<point x="441" y="602" type="line"/>
			<point x="487" y="628" type="line"/>
			<point x="501" y="690" type="line"/>
			<point x="131" y="690" type="line"/>
		</contour>
	</outline>
</glyph>
<glyph name="tilde.cap" format="2">
	<advance width="500"/>
	<anchor x="337" y="690" name="_top"/>
	<outline>
		<contour>
			<point x="218" y="765" type="curve"/>
			<point x="269" y="765" type="line"/>
			<point x="279" y="801"/>
			<point x="295" y="813"/>
			<point x="310" y="813" type="curve" smooth="yes"/>
			<point x="339" y="813"/>
			<point x="365" y="760"/>
			<point x="415" y="760" type="curve" smooth="yes"/>
			<point x="459" y="760"/>
			<point x="495" y="803"/>
			<point x="512" y="876" type="curve"/>
			<point x="460" y="876" type="line"/>
			<point x="450" y="840"/>
			<point x="436" y="828"/>
			<point x="422" y="828" type="curve" smooth="yes"/>
			<point x="392" y="828"/>
			<point x="367" y="881"/>
			<point x="317" y="881" type="curve" smooth="yes"/>
			<point x="272" y="881"/>
			<point x="234" y="839"/>
		</contour>
	</outline>
</glyph>
<glyph name="u.alt" format="2">
	<advance width="525"/>
	<anchor x="302" y="514" name="top"/>
	<anchor x="353" y="0" name="ogonek"/>
	<anchor x="207" y="0" name="bottom"/>
	<outline>
		<contour>
			<point x="44" y="131" type="curve" smooth="yes"/>
			<point x="44" y="40"/>
			<point x="93" y="-10"/>
			<point x="170" y="-10" type="curve" smooth="yes"/>
			<point x="228" y="-10"/>
			<point x="290" y="29"/>
			<point x="327" y="99" type="curve"/>
			<point x="320" y="98" type="line"/>
			<point x="311" y="38"/>
			<point x="336" y="-10"/>
			<point x="390" y="-10" type="curve"/>
			<point x="406" y="-10"/>
			<point x="418" y="-6"/>
			<point x="428" y="0" type="curve"/>
			<point x="444" y="67" type="line"/>
			<point x="439" y="65"/>
			<point x="433" y="63"/>
			<point x="425" y="63" type="curve" smooth="yes"/>
			<point x="406" y="63"/>
			<point x="398" y="81"/>
			<point x="412" y="149" type="curve" smooth="yes"/>
			<point x="489" y="515" type="line"/>
			<point x="401" y="515" type="line"/>
			<point x="347" y="251" type="line" smooth="yes"/>
			<point x="323" y="133"/>
			<point x="260" y="67"/>
			<point x="198" y="67" type="curve" smooth="yes"/>
			<point x="159" y="67"/>
			<point x="133" y="93"/>
			<point x="133" y="142" type="curve" smooth="yes"/>
			<point x="133" y="166"/>
			<point x="138" y="194"/>
			<point x="144" y="223" type="curve" smooth="yes"/>
			<point x="206" y="515" type="line"/>
			<point x="118" y="515" type="line"/>
			<point x="56" y="222" type="line" smooth="yes"/>
			<point x="50" y="192"/>
			<point x="44" y="154"/>
		</contour>
	</outline>
</glyph>
<glyph name="uogonek.alt" format="2">
  <advance width="525"/>
  <outline>
    <contour>
      <point x="44" y="131" type="curve" smooth="yes"/>
      <point x="44" y="40"/>
      <point x="93" y="-10"/>
      <point x="170" y="-10" type="curve" smooth="yes"/>
      <point x="228" y="-10"/>
      <point x="290" y="29"/>
      <point x="327" y="99" type="curve"/>
      <point x="320" y="98" type="line"/>
      <point x="311" y="38"/>
      <point x="336" y="-10"/>
      <point x="390" y="-10" type="curve"/>
      <point x="406" y="-10"/>
      <point x="418" y="-6"/>
      <point x="428" y="0" type="curve"/>
      <point x="444" y="67" type="line"/>
      <point x="439" y="65"/>
      <point x="433" y="63"/>
      <point x="425" y="63" type="curve" smooth="yes"/>
      <point x="406" y="63"/>
      <point x="398" y="81"/>
      <point x="412" y="149" type="curve" smooth="yes"/>
      <point x="489" y="515" type="line"/>
      <point x="401" y="515" type="line"/>
      <point x="347" y="251" type="line" smooth="yes"/>
      <point x="323" y="133"/>
      <point x="260" y="67"/>
      <point x="198" y="67" type="curve" smooth="yes"/>
      <point x="159" y="67"/>
      <point x="133" y="93"/>
      <point x="133" y="142" type="curve" smooth="yes"/>
      <point x="133" y="166"/>
      <point x="138" y="194"/>
      <point x="144" y="223" type="curve" smooth="yes"/>
      <point x="206" y="515" type="line"/>
      <point x="118" y="515" type="line"/>
      <point x="56" y="222" type="line" smooth="yes"/>
      <point x="50" y="192"/>
      <point x="44" y="154"/>
    </contour>
    <contour>
      <point x="273" y="-121" type="curve" smooth="yes"/>
      <point x="273" y="-159"/>
      <point x="298" y="-195"/>
      <point x="349" y="-195" type="curve" smooth="yes"/>
      <point x="376" y="-195"/>
      <point x="399" y="-187"/>
      <point x="421" y="-172" type="curve"/>
      <point x="401" y="-126" type="line"/>
      <point x="387" y="-135"/>
      <point x="370" y="-140"/>
      <point x="358" y="-140" type="curve" smooth="yes"/>
      <point x="340" y="-140"/>
      <point x="331" y="-126"/>
      <point x="331" y="-111" type="curve" smooth="yes"/>
      <point x="331" y="-74"/>
      <point x="365" y="-36"/>
      <point x="428" y="0" type="curve"/>
      <point x="362" y="10" type="line"/>
      <point x="311" y="-23"/>
      <point x="273" y="-64"/>
    </contour>
  </outline>
</glyph>
